<svg width="24" height="24" viewBox="0 0 24 24" fill="none" xmlns="http://www.w3.org/2000/svg">
<g clip-path="url(#clip0)">
<rect width="24" height="24" fill="white"/>
<path d="M14.7955 0.707107C14.405 0.316583 13.7718 0.316582 13.3813 0.707106L13.2763 0.812057C12.8861 1.20233 12.8858 1.83501 13.2757 2.22564L17.7319 6.68979C18.0458 7.0043 17.8242 7.54146 17.3798 7.54303L0.996495 7.60063C0.445586 7.60257 1.16201e-05 8.04971 1.16201e-05 8.60062V8.75456C1.16201e-05 9.30822 0.449873 9.7565 1.00353 9.75455L17.3678 9.69701C17.8139 9.69544 18.0386 10.2345 17.7234 10.5502L13.2757 15.0059C12.8858 15.3965 12.8861 16.0292 13.2763 16.4195L13.3813 16.5245C13.7718 16.915 14.405 16.915 14.7955 16.5245L21.9971 9.32289C22.3876 8.93236 22.3876 8.2992 21.9971 7.90867L14.7955 0.707107Z" transform="translate(-2.00912 14.0452) rotate(-45)" fill="#141414"/>
</g>
<defs>
<clipPath id="clip0">
<rect width="24" height="24" fill="white"/>
</clipPath>
</defs>
</svg>
