<svg width="16" height="16" viewBox="0 0 16 16" fill="none" xmlns="http://www.w3.org/2000/svg">
<g filter="url(#filter0_d)">
<path d="M2.57009 0.779833C3.05009 0.599833 4.00009 0.709833 4.25009 1.24983C4.50009 1.78983 4.65009 2.48983 4.66009 2.31983C4.64096 1.80313 4.68461 1.28602 4.79009 0.779833C4.90124 0.455648 5.15591 0.200983 5.48009 0.0898334C5.77741 -0.00419533 6.09308 -0.0247827 6.40009 0.0298334C6.71051 0.0937314 6.98544 0.27226 7.17009 0.529833C7.40404 1.11296 7.53596 1.73199 7.56009 2.35983C7.58497 1.82409 7.67565 1.29344 7.83009 0.779833C7.9972 0.544383 8.24123 0.374624 8.52009 0.299833C8.85069 0.239388 9.1895 0.239388 9.52009 0.299833C9.79148 0.389892 10.0288 0.56089 10.2001 0.789833C10.4125 1.31998 10.5407 1.88008 10.5801 2.44983C10.5801 2.58983 10.6501 2.05983 10.8701 1.70983C11.0468 1.18516 11.6154 0.903102 12.1401 1.07983C12.6648 1.25656 12.9468 1.82516 12.7701 2.34983C12.7701 2.99983 12.7701 2.96983 12.7701 3.40983C12.7701 3.84983 12.7701 4.23983 12.7701 4.60983C12.7341 5.19505 12.6538 5.77671 12.5301 6.34983C12.3565 6.85715 12.1143 7.33829 11.8101 7.77983C11.3247 8.31989 10.9235 8.93009 10.6201 9.58983C10.5461 9.91784 10.5125 10.2537 10.5201 10.5898C10.5191 10.9005 10.5594 11.2099 10.6401 11.5098C10.2313 11.5535 9.81893 11.5535 9.41009 11.5098C9.02009 11.4498 8.54009 10.6698 8.41009 10.4298C8.34577 10.301 8.21412 10.2195 8.07009 10.2195C7.92607 10.2195 7.79442 10.301 7.73009 10.4298C7.51009 10.8098 7.02009 11.4998 6.73009 11.5398C6.06009 11.6198 4.67009 11.5398 3.59009 11.5398C3.59009 11.5398 3.78009 10.5398 3.36009 10.1798C2.94009 9.81983 2.53009 9.39983 2.22009 9.11983L1.39009 8.19983C0.804785 7.65651 0.376475 6.96569 0.150094 6.19983C-0.0599064 5.25983 -0.0399064 4.80983 0.150094 4.42983C0.343883 4.11604 0.646486 3.88464 1.00009 3.77983C1.29386 3.72654 1.59628 3.74716 1.88009 3.83983C2.07636 3.922 2.24598 4.05701 2.37009 4.22983C2.60009 4.53983 2.68009 4.68983 2.58009 4.34983C2.48009 4.00983 2.26009 3.75983 2.15009 3.34983C1.93595 2.86563 1.80737 2.34796 1.77009 1.81983C1.81108 1.346 2.14192 0.947395 2.60009 0.819833" transform="translate(1.42969 1.37012)" fill="white"/>
<path d="M2.57009 0.779833C3.05009 0.599833 4.00009 0.709833 4.25009 1.24983C4.50009 1.78983 4.65009 2.48983 4.66009 2.31983C4.64096 1.80313 4.68461 1.28602 4.79009 0.779833C4.90124 0.455648 5.15591 0.200983 5.48009 0.0898334C5.77741 -0.00419533 6.09308 -0.0247827 6.40009 0.0298334C6.71051 0.0937314 6.98544 0.27226 7.17009 0.529833C7.40404 1.11296 7.53596 1.73199 7.56009 2.35983C7.58497 1.82409 7.67565 1.29344 7.83009 0.779833C7.9972 0.544383 8.24123 0.374624 8.52009 0.299833C8.85069 0.239388 9.1895 0.239388 9.52009 0.299833C9.79148 0.389892 10.0288 0.56089 10.2001 0.789833C10.4125 1.31998 10.5407 1.88008 10.5801 2.44983C10.5801 2.58983 10.6501 2.05983 10.8701 1.70983C11.0468 1.18516 11.6154 0.903102 12.1401 1.07983C12.6648 1.25656 12.9468 1.82516 12.7701 2.34983C12.7701 2.99983 12.7701 2.96983 12.7701 3.40983C12.7701 3.84983 12.7701 4.23983 12.7701 4.60983C12.7341 5.19505 12.6538 5.77671 12.5301 6.34983C12.3565 6.85715 12.1143 7.33829 11.8101 7.77983C11.3247 8.31989 10.9235 8.93009 10.6201 9.58983C10.5461 9.91784 10.5125 10.2537 10.5201 10.5898C10.5191 10.9005 10.5594 11.2099 10.6401 11.5098C10.2313 11.5535 9.81893 11.5535 9.41009 11.5098C9.02009 11.4498 8.54009 10.6698 8.41009 10.4298C8.34577 10.301 8.21412 10.2195 8.07009 10.2195C7.92607 10.2195 7.79442 10.301 7.73009 10.4298C7.51009 10.8098 7.02009 11.4998 6.73009 11.5398C6.06009 11.6198 4.67009 11.5398 3.59009 11.5398C3.59009 11.5398 3.78009 10.5398 3.36009 10.1798C2.94009 9.81983 2.53009 9.39983 2.22009 9.11983L1.39009 8.19983C0.804785 7.65651 0.376475 6.96569 0.150094 6.19983C-0.0599064 5.25983 -0.0399064 4.80983 0.150094 4.42983C0.343883 4.11604 0.646486 3.88464 1.00009 3.77983C1.29386 3.72654 1.59628 3.74716 1.88009 3.83983C2.07636 3.922 2.24598 4.05701 2.37009 4.22983C2.60009 4.53983 2.68009 4.68983 2.58009 4.34983C2.48009 4.00983 2.26009 3.75983 2.15009 3.34983C1.93595 2.86563 1.80737 2.34796 1.77009 1.81983C1.79054 1.33907 2.11066 0.922914 2.57009 0.779833Z" transform="translate(1.42969 1.37012)" stroke="black" stroke-width="0.75" stroke-linejoin="round"/>
<path d="M0.75 3.82589V0.374109C0.75 0.167494 0.582107 0 0.375 0C0.167893 0 0 0.167494 0 0.374109V3.82589C0 4.03251 0.167893 4.2 0.375 4.2C0.582107 4.2 0.75 4.03251 0.75 3.82589Z" transform="translate(11 6)" fill="black"/>
<path d="M0.769994 3.82463L0.749994 0.371072C0.7488 0.16495 0.579942 -0.00118169 0.372839 6.3322e-06C0.165735 0.00119435 -0.00118732 0.169252 6.36236e-06 0.375374L0.0200064 3.82893C0.0212 4.03505 0.190058 4.20118 0.397161 4.19999C0.604265 4.19881 0.771188 4.03075 0.769994 3.82463Z" transform="translate(9 6)" fill="black"/>
<path d="M6.5497e-06 0.379907L0.0200066 3.82451C0.0212177 4.0331 0.19009 4.20121 0.397193 4.19999C0.604296 4.19877 0.771205 4.02869 0.769994 3.82009L0.749994 0.375489C0.748783 0.166896 0.57991 -0.00121325 0.372807 6.59682e-06C0.165704 0.00122644 -0.00120458 0.171313 6.5497e-06 0.379907Z" transform="translate(7 6)" fill="black"/>
</g>
<defs>
<filter id="filter0_d" x="0.254687" y="0.995117" width="15.1729" height="14.1254" filterUnits="userSpaceOnUse" color-interpolation-filters="sRGB">
<feFlood flood-opacity="0" result="BackgroundImageFix"/>
<feColorMatrix in="SourceAlpha" type="matrix" values="0 0 0 0 0 0 0 0 0 0 0 0 0 0 0 0 0 0 255 0"/>
<feOffset dy="1"/>
<feGaussianBlur stdDeviation="0.4"/>
<feColorMatrix type="matrix" values="0 0 0 0 0 0 0 0 0 0 0 0 0 0 0 0 0 0 0.5 0"/>
<feBlend mode="normal" in2="BackgroundImageFix" result="effect1_dropShadow"/>
<feBlend mode="normal" in="SourceGraphic" in2="effect1_dropShadow" result="shape"/>
</filter>
</defs>
</svg>
