<?xml version="1.0" encoding="UTF-8"?>
<svg width="24px" height="24px" viewBox="0 0 24 24" version="1.1" xmlns="http://www.w3.org/2000/svg" xmlns:xlink="http://www.w3.org/1999/xlink">
    <!-- Generator: Sketch 49 (51002) - http://www.bohemiancoding.com/sketch -->
    <title>Group 11</title>
    <desc>Created with Sketch.</desc>
    <defs></defs>
    <g id="Page-1" stroke="none" stroke-width="1" fill="none" fill-rule="evenodd">
        <g id="Group-11">
            <rect id="Rectangle-20" fill="#FFFFFF" x="0" y="0" width="24" height="24"></rect>
            <g id="noun_1560847_cc" transform="translate(2.000000, 3.000000)" fill="#000000" fill-rule="nonzero">
                <path d="M0.386287922,15.4255866 C-0.0428732086,15.9913603 -0.121173903,16.7647736 0.185209724,17.4117318 C0.48130751,18.0575466 1.10811232,18.466588 1.79383531,18.4614914 L4.81000828,18.4614914 C5.94952248,18.4587401 7.03442436,17.9513635 7.79508876,17.0654573 C8.55575316,16.1795512 8.92076136,14.9982932 8.79939973,13.8152554 L17.4960318,5.49486078 C18.3083791,4.70290808 18.6421267,3.51124401 18.3664253,2.38707383 C18.0907238,1.26290366 17.2495129,0.385391199 16.1725988,0.0985750584 C15.0956847,-0.188241082 13.9546997,0.161350214 13.1969799,1.01028776 L5.23026171,10.0907083 C4.09748917,9.96642855 2.96737263,10.3495236 2.1205444,11.1448627 C1.27371617,11.9402019 0.78961161,13.0731795 0.788444318,14.262453 C0.787819013,14.6871617 0.645632327,15.0984001 0.386287922,15.4255866 Z M14.3813305,2.14612765 C14.7377268,1.74202434 15.2774763,1.57420737 15.7875361,1.70891529 C16.2975958,1.84362322 16.6960155,2.2592128 16.8255362,2.79164786 C16.9550568,3.32408292 16.7948685,3.88781825 16.4081987,4.26034349 L8.23839156,12.074754 C7.90672173,11.5020017 7.44725712,11.0215403 6.89921076,10.6743747 L14.3813305,2.14612765 Z M1.64704822,16.4627491 C2.13183145,15.8411271 2.39670099,15.0640944 2.3970699,14.262453 C2.39537403,13.4942935 2.73107597,12.7677258 3.30795414,12.2910044 C3.73025315,11.9363093 4.25597026,11.742966 4.79794359,11.7430299 C4.99417158,11.7435983 5.18973696,11.7668344 5.38107036,11.8123141 C6.57233322,12.1101578 7.36084348,13.2927173 7.214918,14.5626066 C7.06899253,15.832496 6.03493936,16.7867283 4.81000828,16.781876 L1.79383531,16.781876 C1.72486752,16.7861603 1.66065521,16.7450946 1.63297275,16.6789996 C1.59483762,16.610701 1.60041369,16.5250324 1.64704822,16.4627491 Z" id="Shape"></path>
                <path d="M3.84615385,3.07692308 C3.42131942,3.07692308 3.07692308,3.42131942 3.07692308,3.84615385 L3.07692308,4.61538462 L2.30769231,4.61538462 C1.88285788,4.61538462 1.53846154,4.95978096 1.53846154,5.38461538 C1.53846154,5.80944981 1.88285788,6.15384615 2.30769231,6.15384615 L3.07692308,6.15384615 L3.07692308,6.92307692 C3.07692308,7.34791135 3.42131942,7.69230769 3.84615385,7.69230769 C4.27098827,7.69230769 4.61538462,7.34791135 4.61538462,6.92307692 L4.61538462,6.15384615 L5.38461538,6.15384615 C5.80944981,6.15384615 6.15384615,5.80944981 6.15384615,5.38461538 C6.15384615,4.95978096 5.80944981,4.61538462 5.38461538,4.61538462 L4.61538462,4.61538462 L4.61538462,3.84615385 C4.61538462,3.42131942 4.27098827,3.07692308 3.84615385,3.07692308 Z" id="Shape"></path>
                <path d="M20,13.8461538 C20,13.4213194 19.6556037,13.0769231 19.2307692,13.0769231 L17.6923077,13.0769231 L17.6923077,11.5384615 C17.6923077,11.1136271 17.3479113,10.7692308 16.9230769,10.7692308 C16.4982425,10.7692308 16.1538462,11.1136271 16.1538462,11.5384615 L16.1538462,13.0769231 L14.6153846,13.0769231 C14.1905502,13.0769231 13.8461538,13.4213194 13.8461538,13.8461538 C13.8461538,14.2709883 14.1905502,14.6153846 14.6153846,14.6153846 L16.1538462,14.6153846 L16.1538462,16.1538462 C16.1538462,16.5786806 16.4982425,16.9230769 16.9230769,16.9230769 C17.3479113,16.9230769 17.6923077,16.5786806 17.6923077,16.1538462 L17.6923077,14.6153846 L19.2307692,14.6153846 C19.6556037,14.6153846 20,14.2709883 20,13.8461538 Z" id="Shape"></path>
                <circle id="Oval" cx="9.23076923" cy="1.53846154" r="1.53846154"></circle>
            </g>
        </g>
    </g>
</svg>