<svg width="24" height="24" viewBox="0 0 24 24" fill="none" xmlns="http://www.w3.org/2000/svg">
<rect width="24" height="24" fill="white"/>
<path d="M0 0V-1C-0.552285 -1 -1 -0.552285 -1 0L0 0ZM15 0H16C16 -0.552285 15.5523 -1 15 -1V0ZM14 3C14 3.55228 14.4477 4 15 4C15.5523 4 16 3.55228 16 3H14ZM-1 3C-1 3.55228 -0.552285 4 0 4C0.552285 4 1 3.55228 1 3H-1ZM8.5 0C8.5 -0.552285 8.05229 -1 7.5 -1C6.94772 -1 6.5 -0.552285 6.5 0H8.5ZM5.5 13.5C4.94772 13.5 4.5 13.9477 4.5 14.5C4.5 15.0523 4.94772 15.5 5.5 15.5V13.5ZM9.5 15.5C10.0523 15.5 10.5 15.0523 10.5 14.5C10.5 13.9477 10.0523 13.5 9.5 13.5V15.5ZM0 1H15V-1H0V1ZM14 0V3H16V0H14ZM-1 0V3H1V0H-1ZM6.5 0V14.5H8.5V0H6.5ZM7.5 13.5H5.5V15.5H7.5V13.5ZM7.5 15.5H9.5V13.5H7.5V15.5Z" transform="translate(4.5 5)" fill="black"/>
</svg>
