<?xml version="1.0" encoding="UTF-8"?>
<svg width="18px" height="15px" viewBox="0 0 18 15" version="1.1" xmlns="http://www.w3.org/2000/svg" xmlns:xlink="http://www.w3.org/1999/xlink">
    <!-- Generator: Sketch 49 (51002) - http://www.bohemiancoding.com/sketch -->
    <title>邀请</title>
    <desc>Created with Sketch.</desc>
    <defs></defs>
    <g id="Page-1" stroke="none" stroke-width="1" fill="none" fill-rule="evenodd">
        <g id="邀请" fill="#A2A7AD" fill-rule="nonzero">
            <path d="M10.1538461,11.58 C10.1538461,10.41 10.6461538,9.33000001 11.4461538,8.58 C10.8923077,8.34 10.2461538,8.13 9.56923077,8.01 C11.0153846,7.32 12,5.87999999 12,4.2 C12,1.88999999 10.0615385,0 7.69230768,0 C5.32307691,0 3.38461538,1.89000001 3.38461538,4.2 C3.38461538,5.81999999 4.33846153,7.23 5.72307693,7.92 C1.6,8.67 0,12.21 0,13.14 C0,14.19 0.215384616,15 2.55384615,15 L11.9692308,15 C10.8615384,14.25 10.1538461,12.99 10.1538461,11.58 Z" id="Shape"></path>
            <path d="M14.5,8 C12.5590909,8 11,9.55909091 11,11.5 C11,13.4409091 12.5590909,15 14.5,15 C16.4409091,15 18,13.4409091 18,11.5 C18,9.55909093 16.4409091,8.00000002 14.5,8 Z M15.9318182,11.8181818 L14.9772727,11.8181818 L14.9772727,13.0909091 C14.9772727,13.3454545 14.7545455,13.5681818 14.5,13.5681818 C14.2454546,13.5681818 14.0227273,13.3454545 14.0227273,13.0909091 L14.0227273,11.8181818 L13.0681818,11.8181818 C12.8136364,11.8181818 12.5909091,11.5954545 12.5909091,11.3409091 C12.5909091,11.0863636 12.8136364,10.8636364 13.0681818,10.8636364 L14.0227273,10.8636364 L14.0227273,9.59090909 C14.0227273,9.33636364 14.2454545,9.11363636 14.5,9.11363636 C14.7545455,9.11363636 14.9772727,9.33636364 14.9772727,9.59090909 L14.9772727,10.8636364 L15.9318182,10.8636364 C16.1863636,10.8636364 16.4090909,11.0863636 16.4090909,11.3409091 C16.4090909,11.5954545 16.1863636,11.8181818 15.9318182,11.8181818 Z" id="Shape"></path>
        </g>
    </g>
</svg>