<svg width="18" height="18" viewBox="0 0 18 18" fill="none" xmlns="http://www.w3.org/2000/svg">
<path d="M9.98852 11.7495C9.36794 12.1095 8.60204 12.1096 7.9814 11.7496L2.02686 8.29609C1.7747 8.14984 1.46352 8.14986 1.21138 8.29615C0.67166 8.6093 0.67166 9.38871 1.21138 9.70186L7.9913 13.6356C8.61198 13.9957 9.37803 13.9957 9.99871 13.6356L16.7712 9.70616C17.3145 9.39096 17.3148 8.60654 16.7717 8.29092C16.5177 8.14328 16.204 8.14316 15.9499 8.29061L9.98852 11.7495ZM7.99091 9.85559C8.61181 10.2157 9.37807 10.2155 9.99876 9.855L16.3509 6.16585C17.0804 5.74444 17.0814 4.6918 16.3527 4.269L9.99871 0.582359C9.37803 0.222233 8.61198 0.222233 7.9913 0.582359L1.62981 4.27334C0.903348 4.69485 0.90295 5.74379 1.6291 6.16585L7.99091 9.85559Z" fill="#A2A7AD"/>
<path d="M9.99851 15.5315C9.37794 15.8915 8.61203 15.8916 7.99139 15.5316L2.03686 12.0781C1.78469 11.9319 1.47351 11.9319 1.22137 12.0782C0.681654 12.3913 0.681654 13.1707 1.22137 13.4839L8.00129 17.4176C8.62197 17.7778 9.38802 17.7778 10.0087 17.4176L16.7812 13.4882C17.3245 13.173 17.3248 12.3886 16.7817 12.0729C16.5277 11.9253 16.214 11.9252 15.9599 12.0726L9.99851 15.5315Z" fill="#A2A7AD"/>
</svg>
