<?xml version="1.0" encoding="UTF-8"?>
<svg width="38px" height="89px" viewBox="0 0 38 89" version="1.1" xmlns="http://www.w3.org/2000/svg" xmlns:xlink="http://www.w3.org/1999/xlink">
    <!-- Generator: Sketch 49 (51002) - http://www.bohemiancoding.com/sketch -->
    <title>箭头 (1)</title>
    <desc>Created with Sketch.</desc>
    <defs></defs>
    <g id="Page-1" stroke="none" stroke-width="1" fill="none" fill-rule="evenodd">
        <g id="箭头-(1)" fill="#FFFFFF" fill-rule="nonzero">
            <path d="M0.61578226,8.39236543 L14.4039456,44.3873786 L0.61578226,80.3823917 C0.140328364,81.7155403 -0.0181562781,83.4930718 0.140328364,85.2706034 C0.298813007,87.0481349 0.774266903,88.3812835 1.40820544,88.8256664 C2.04214398,89.2700493 2.67608252,88.8256664 3.15153645,87.9369007 L18.3660615,48.3868245 C18.6830307,47.4980587 19,46.1649101 19,44.8317615 C19,43.4986129 18.8415154,42.1654642 18.3660615,41.2766985 L2.9930518,1.28223932 C2.20062862,-0.49529218 1.09123616,-0.49529218 0.457297618,1.72662222 C-0.17664092,3.94853662 -0.17664092,6.61483392 0.61578226,8.39236543" id="Shape"></path>
            <path d="M19.5949896,7.98786647 L33.3987474,44.163507 L19.5949896,80.3391475 C19.1189979,81.678986 18.960334,83.4654374 19.1189979,85.2518889 C19.2776618,87.0383402 19.7536534,88.3781787 20.388309,88.8247916 C21.0229645,89.2714045 21.65762,88.8247916 22.1336117,87.931566 L37.3653445,48.1830226 C37.6826723,47.2897969 38,45.9499584 38,44.6101199 C38,43.2702814 37.8413361,41.9304428 37.3653445,41.0372171 L22.1336117,1.28867376 C21.4989562,-0.497777617 20.388309,-0.497777617 19.5949896,1.73528662 C18.8016701,3.07512513 18.8016701,6.2014151 19.5949896,7.98786647" id="Shape"></path>
        </g>
    </g>
</svg>