<?xml version="1.0" standalone="no"?><!DOCTYPE svg PUBLIC "-//W3C//DTD SVG 1.1//EN" "http://www.w3.org/Graphics/SVG/1.1/DTD/svg11.dtd"><svg t="1563530630908" class="icon" viewBox="0 0 1879 1024" version="1.1" xmlns="http://www.w3.org/2000/svg" p-id="3146" xmlns:xlink="http://www.w3.org/1999/xlink" width="58.71875" height="32"><defs><style type="text/css"></style></defs><path d="M936.841618 201.544509c8.434682 0 15.981503-3.107514 22.344509-9.322544 5.771098-5.623121 9.322543-13.909827 9.322544-22.196531 0-8.138728-3.107514-15.981503-9.322544-22.196532-5.771098-5.623121-13.909827-9.322543-22.344509-9.322544s-15.981503 3.107514-22.344508 9.322544c-6.067052 6.067052-9.322543 13.909827-9.322544 22.196532s3.107514 15.981503 9.322544 22.196531c5.771098 5.623121 13.909827 9.322543 22.344508 9.322544z" fill="#ffffff" p-id="3147"></path><path d="M1222.14104 907.39422h-82.127167l-85.974567-124.004625c151.676301-49.276301 261.771098-191.03815 261.771099-358.104046 0-207.907514-170.321387-377.193064-379.708671-377.193063S556.54104 216.934104 556.54104 424.841618c0 167.213873 110.242775 309.419653 262.363006 358.695954l-85.826589 123.856648h-83.163006c-17.609249 0-32.110983 14.353757-32.110983 31.963005 0 17.609249 13.909827 31.963006 32.110983 31.963006h572.818497c17.609249 0 31.667052-14.353757 31.667052-31.963006 0-17.609249-14.057803-31.963006-32.25896-31.963005z m-600.786127-481.960694C621.354913 253.040462 762.820809 112.462428 936.249711 112.462428s314.894798 140.578035 314.894798 312.971098S1109.82659 738.256647 936.249711 738.256647c-173.428902 0-314.894798-140.578035-314.894798-312.823121z m265.618497 373.493642c16.12948 2.071676 32.554913 3.107514 49.276301 3.107514 16.869364 0 33.590751-1.183815 49.868208-3.255491l74.876301 108.615029H811.801156l75.172254-108.467052z" fill="#ffffff" p-id="3148"></path><path d="M1132.615029 424.841618c0-107.431214-87.898266-195.033526-196.365318-195.033526-108.171098 0-196.365318 87.602312-196.365318 195.033526s88.19422 195.033526 196.365318 195.033527 196.365318-87.602312 196.365318-195.033527z m-328.06474 0.591908c0-71.916763 59.190751-130.663584 131.699422-130.663584s131.699422 58.746821 131.699422 130.663584-59.190751 130.663584-131.699422 130.663584-131.699422-58.746821-131.699422-130.663584z" fill="#ffffff" p-id="3149"></path></svg>