<?xml version="1.0" encoding="UTF-8"?>
<svg width="125px" height="125px" viewBox="0 0 125 125" version="1.1" xmlns="http://www.w3.org/2000/svg" xmlns:xlink="http://www.w3.org/1999/xlink">
    <!-- Generator: Sketch 55.1 (78136) - https://sketchapp.com -->
    <title>close</title>
    <desc>Created with Sketch.</desc>
    <g id="页面1" stroke="none" stroke-width="1" fill="none" fill-rule="evenodd">
        <g id="close" fill="#FFFFFF" fill-rule="nonzero">
            <path d="M71.35,62.353125 L123.1625,10.809375 C125.6125,8.371875 125.625,4.421875 123.1875,1.971875 C120.74375,-0.484375 116.8,-0.490625 114.35,1.946875 L62.525,53.496875 L11.15,1.965625 C8.71875,-0.471875 4.7625,-0.484375 2.3125,1.953125 C-0.13125,4.390625 -0.1375,8.346875 2.3,10.796875 L53.6625,62.315625 L1.875,113.828125 C-0.575,116.265625 -0.5875,120.215625 1.85,122.665625 C3.02206042,123.846616 4.61737941,124.510395 6.28125,124.509375 C7.875,124.509375 9.46875,123.903125 10.6875,122.690625 L62.4875,71.165625 L114.33125,123.165625 C115.55,124.390625 117.15,125.003126 118.75625,125.003126 C120.410911,125.003126 121.998158,124.347577 123.16875,123.178125 C125.6125,120.740625 125.61875,116.790625 123.18125,114.340625 L71.35,62.353125 Z" id="路径"></path>
        </g>
    </g>
</svg>