<?xml version="1.0" encoding="UTF-8"?>
<svg width="2257px" height="895px" viewBox="0 0 2257 895" version="1.1" xmlns="http://www.w3.org/2000/svg" xmlns:xlink="http://www.w3.org/1999/xlink">
    <!-- Generator: Sketch 49 (51002) - http://www.bohemiancoding.com/sketch -->
    <title>Group 2</title>
    <desc>Created with Sketch.</desc>
    <defs></defs>
    <g id="Page-1" stroke="none" stroke-width="1" fill="none" fill-rule="evenodd">
        <g id="Group-2" fill="#000000" fill-rule="nonzero">
            <g id="网页" transform="translate(1394.000000, 53.000000)">
                <path d="M696.564286,2.73739365e-14 L166.435714,2.73739365e-14 C73.9714286,2.73739365e-14 0,73.96875 0,166.429688 L0,622.570312 C0,715.03125 73.9714286,789 166.435714,789 L696.564286,789 C789.028571,789 863,715.03125 863,622.570312 L863,166.429688 C863,73.96875 789.028571,0 696.564286,2.73739365e-14 Z M166.435714,61.640625 L696.564286,61.640625 C752.042857,61.640625 801.357143,110.953125 801.357143,166.429688 L801.357143,221.90625 L61.6428571,221.90625 L61.6428571,166.429688 C61.6428571,110.953125 110.957143,61.640625 166.435714,61.640625 Z M696.564286,727.359375 L166.435714,727.359375 C110.957143,727.359375 61.6428571,678.046875 61.6428571,622.570312 L61.6428571,283.546875 L801.357143,283.546875 L801.357143,622.570312 C801.357143,678.046875 752.042857,727.359375 696.564286,727.359375 Z" id="Shape"></path>
                <path d="M432.150943,407 L166.849057,407 C148.339623,407 136,419.352941 136,437.882353 C136,456.411765 148.339623,468.764706 166.849057,468.764706 L432.150943,468.764706 C450.660377,468.764706 463,456.411765 463,437.882353 C463,419.352941 450.660377,407 432.150943,407 Z M302.584906,555.235294 L166.849057,555.235294 C148.339623,555.235294 136,567.588235 136,586.117647 C136,604.647059 148.339623,617 166.849057,617 L308.754717,617 C327.264151,617 339.603774,604.647059 339.603774,586.117647 C339.603774,567.588235 321.09434,555.235294 302.584906,555.235294 Z" id="Shape"></path>
                <path d="M136,155 C136,175.434536 152.565464,192 173,192 C193.434536,192 210,175.434536 210,155 C210,134.565464 193.434536,118 173,118 C152.565464,118 136,134.565464 136,155 Z" id="Shape"></path>
                <path d="M247,155 C247,175.434536 263.565464,192 284,192 C304.434536,192 321,175.434536 321,155 C321,134.565464 304.434536,118 284,118 C263.565464,118 247,134.565464 247,155 Z" id="Shape"></path>
                <path d="M351,155 C351,175.434536 367.565464,192 388,192 C408.434536,192 425,175.434536 425,155 C425,134.565464 408.434536,118 388,118 C367.565464,118 351,134.565464 351,155 Z" id="Shape"></path>
            </g>
            <g id="ppt-(1)">
                <path d="M730,329.548387 C725.566667,258.322581 667.933333,196 597,196 L597,334 C641.333334,329.548387 685.666666,329.548387 730,329.548387 Z" id="Shape"></path>
                <path d="M860.226404,756.965174 L525.941532,756.965174 L525.941532,672.363184 L771.083772,672.363184 L771.083772,632.288558 L525.941532,632.288558 L525.941532,578.855721 L771.083772,578.855721 L771.083772,538.781095 L525.941532,538.781095 L525.941532,476.442786 C566.055717,489.800995 610.627033,489.800995 646.284086,463.084577 C686.398271,440.820896 704.226798,396.293533 708.683929,351.766169 L574.96998,351.766169 L574.96998,218.18408 C557.141454,222.636816 543.770058,227.089553 525.941532,227.089553 L525.941532,124.676617 L860.226404,124.676617 L860.226404,756.965174 Z M298.627819,480.895522 C276.34216,489.800995 249.599371,489.800995 222.856581,489.800995 L222.856581,610.024876 C205.028055,610.024876 182.742397,605.57214 160.456739,605.572139 L160.456739,271.616915 C213.942318,276.069651 280.799293,249.353234 329.827741,289.427861 C374.399057,347.313433 361.027662,445.273632 298.627819,480.895522 Z M891.426326,133.58209 C895.883457,111.318408 873.5978,89.0547261 851.312141,93.507463 L525.941532,93.507463 L525.941532,0 L467.998821,0 C311.999214,26.7164178 155.999607,53.4328355 0,84.6019901 L0,810.39801 C155.999607,837.114428 307.542082,863.830845 463.541689,895 L525.941532,895 L525.941532,792.587065 L829.026483,792.587065 C846.855009,792.587065 864.683536,792.587065 882.512062,783.681592 C891.426326,756.965174 891.426326,734.701493 891.426326,712.437811 L891.426326,133.58209 Z" id="Shape"></path>
                <path d="M223,329.495192 L223,432 C245.413793,427.54327 267.827586,432 281.275862,409.716346 C290.241379,387.432692 290.241379,360.692307 281.275862,342.865385 C267.827586,325.038462 240.931035,329.495192 223,329.495192 Z" id="Shape"></path>
            </g>
            <g id="转换-(1)" transform="translate(957.000000, 275.000000)">
                <path d="M172.976967,346 C268.517375,346 346,268.527689 346,173 C346,77.472311 268.517375,0 172.976967,0 C78.9106644,0 2.34935428,75.0772098 0,168.578275 L0,177.375666 C2.34935428,270.92279 78.8645986,346 172.976967,346 Z M279.619225,200.912141 C279.665291,201.00426 279.665291,201.096379 279.711357,201.188498 L279.803488,201.649095 C279.803488,201.741214 279.803488,201.787274 279.849554,201.879393 C279.89562,202.017572 279.941686,202.20181 279.941686,202.339989 C279.941686,202.432109 279.987751,202.524228 279.987751,202.616347 C280.033817,202.754526 280.033817,202.938765 280.079883,203.076944 C280.079883,203.169063 280.125949,203.261182 280.125949,203.353301 C280.125949,203.49148 280.172014,203.629659 280.172014,203.813898 C280.21808,203.906017 280.21808,204.090256 280.21808,204.182375 C280.264146,204.320554 280.264146,204.458733 280.264146,204.550852 C280.310212,204.78115 280.310212,205.011448 280.310212,205.287806 C280.310212,205.564164 280.264146,205.748403 280.264146,206.02476 C280.264146,206.162939 280.21808,206.301118 280.21808,206.393237 C280.21808,206.485357 280.172014,206.669595 280.172014,206.761715 C280.172014,206.899894 280.172014,207.038072 280.125949,207.222311 C280.125949,207.31443 280.079883,207.40655 280.079883,207.498669 C280.079883,207.636848 280.033817,207.821086 279.987751,207.959265 C279.987751,208.051384 279.941686,208.143504 279.941686,208.235623 C279.89562,208.373802 279.849554,208.55804 279.849554,208.696219 C279.849554,208.788339 279.849554,208.834398 279.803488,208.926518 L279.711357,209.387114 C279.665291,209.479233 279.665291,209.571353 279.619225,209.663472 C279.573159,209.755591 279.527094,209.93983 279.481028,210.078009 C279.434962,210.170128 279.388896,210.262247 279.388896,210.354366 C279.342831,210.446486 279.296765,210.630724 279.250699,210.722843 L279.158567,211.045261 C279.112502,211.13738 279.066436,211.275559 279.02037,211.367678 C278.974304,211.459798 278.928239,211.644036 278.882173,211.736155 C278.790041,211.828275 278.790041,211.920394 278.743976,212.012513 C278.69791,212.150692 278.651844,212.288871 278.559712,212.42705 C278.467581,212.519169 278.467581,212.565229 278.421515,212.657348 C278.329384,212.795527 278.283318,212.933706 278.191186,213.071885 C278.099055,213.164004 278.099055,213.210064 278.052989,213.302183 L277.776594,213.71672 C277.730529,213.808839 277.684463,213.854899 277.638397,213.947018 L277.362002,214.361555 C277.269871,214.453674 277.269871,214.499734 277.177739,214.591853 C277.085608,214.683972 277.039542,214.822151 276.901345,214.914271 C276.809213,215.00639 276.717082,215.144569 276.62495,215.236688 C276.532819,215.328807 276.486753,215.420927 276.394621,215.513046 C276.210358,215.697284 276.072161,215.881523 275.887898,216.065761 L240.555452,251.393504 C234.659033,257.289137 225.123419,257.289137 219.227,251.393504 C213.330582,245.49787 213.330582,235.963525 219.227,230.067891 L228.808681,220.487487 L81.582479,220.487487 C73.1985089,220.487487 66.4729064,213.71672 66.4729064,205.379925 C66.4729064,196.997071 73.2445746,190.272364 81.582479,190.272364 L265.154573,190.272364 C265.384902,190.272364 265.615231,190.318424 265.891626,190.318424 C265.983757,190.318424 266.121954,190.364483 266.214086,190.364483 C266.306218,190.364483 266.490481,190.410543 266.582612,190.410543 C266.720809,190.410543 266.859007,190.410543 267.04327,190.456603 C267.135401,190.456603 267.227533,190.502662 267.319664,190.502662 C267.457862,190.502662 267.642125,190.548722 267.780322,190.594782 C267.872454,190.594782 267.964585,190.640841 268.056717,190.640841 C268.194914,190.686901 268.379177,190.732961 268.517375,190.732961 C268.609506,190.77902 268.701638,190.77902 268.793769,190.82508 L269.254427,190.917199 C269.346558,190.963259 269.43869,190.963259 269.530821,191.009318 C269.622953,191.055378 269.807216,191.101438 269.945413,191.147497 C270.037545,191.193557 270.129676,191.239617 270.221808,191.239617 C270.31394,191.285676 270.498203,191.331736 270.590334,191.377796 L270.912795,191.469915 C271.004926,191.515974 271.143123,191.562034 271.235255,191.608094 C271.327386,191.654153 271.51165,191.700213 271.603781,191.746273 C271.695913,191.838392 271.788044,191.838392 271.880176,191.884452 C272.018373,191.930511 272.15657,191.976571 272.294768,192.06869 C272.386899,192.160809 272.432965,192.160809 272.525097,192.206869 C272.663294,192.298988 272.801491,192.345048 272.939688,192.437167 C273.03182,192.529286 273.077886,192.529286 273.170017,192.575346 L273.584609,192.851704 C273.676741,192.897764 273.722807,192.943823 273.814938,192.989883 L274.22953,193.266241 C274.321662,193.35836 274.367727,193.35836 274.459859,193.450479 C274.55199,193.542599 274.690188,193.588658 274.782319,193.726837 L275.058714,194.003195 C275.150845,194.095314 275.242977,194.141374 275.335109,194.233493 C275.519372,194.417732 275.703635,194.555911 275.887898,194.740149 C276.072161,194.924388 276.210358,195.108626 276.394621,195.292865 C276.486753,195.384984 276.532819,195.477103 276.62495,195.569223 L276.901345,195.84558 C276.993476,195.9377 277.085608,196.075879 277.177739,196.167998 C277.269871,196.260117 277.269871,196.306177 277.362002,196.398296 C277.454134,196.536475 277.592331,196.674654 277.638397,196.812833 C277.684463,196.904952 277.730529,196.951012 277.776594,197.043131 L278.052989,197.457668 C278.14512,197.549787 278.14512,197.595847 278.191186,197.687966 C278.283318,197.826145 278.329384,197.964324 278.421515,198.102503 C278.513647,198.194622 278.513647,198.240682 278.559712,198.332801 C278.605778,198.47098 278.651844,198.609159 278.743976,198.747338 C278.836107,198.839457 278.836107,198.931576 278.882173,199.023695 C278.928239,199.115815 278.974304,199.300053 279.02037,199.392173 C279.066436,199.484292 279.112502,199.622471 279.158567,199.71459 L279.250699,200.037007 C279.296765,200.129127 279.342831,200.313365 279.388896,200.405485 C279.434962,200.497604 279.481028,200.589723 279.481028,200.681842 C279.527094,200.589723 279.573159,200.773962 279.619225,200.912141 Z M65.7358541,139.97524 C65.7358541,139.837061 65.7819199,139.698882 65.7819199,139.606763 C65.7819199,139.514643 65.8279856,139.330405 65.8279856,139.238285 C65.8279856,139.100106 65.8279856,138.961928 65.8740514,138.777689 C65.8740514,138.68557 65.9201172,138.59345 65.9201172,138.501331 C65.9201172,138.363152 65.9661829,138.178914 66.0122487,138.040735 C66.0122487,137.948616 66.0583145,137.856496 66.0583145,137.764377 C66.1043802,137.626198 66.150446,137.44196 66.150446,137.303781 C66.150446,137.211661 66.150446,137.165602 66.1965118,137.073482 L66.2886433,136.612886 C66.3347091,136.520767 66.3347091,136.428647 66.3807749,136.336528 C66.4268406,136.244409 66.4729064,136.06017 66.5189722,135.921991 C66.5650379,135.829872 66.6111037,135.737753 66.6111037,135.645634 C66.6571695,135.553514 66.7032353,135.369276 66.749301,135.277157 L66.8414326,134.954739 C66.8874983,134.86262 66.9335641,134.724441 66.9796299,134.632322 C67.0256956,134.540202 67.0717614,134.355964 67.1178272,134.263845 C67.2099587,134.171725 67.2099587,134.079606 67.2560245,133.987487 C67.3020903,133.849308 67.348156,133.711129 67.4402876,133.57295 C67.5324191,133.480831 67.5324191,133.434771 67.5784849,133.342652 C67.6706164,133.204473 67.7166822,133.066294 67.8088137,132.928115 C67.9009453,132.835996 67.9009453,132.789936 67.9470111,132.697817 L68.2234057,132.28328 C68.2694714,132.191161 68.3155372,132.145101 68.361603,132.052982 L68.6379976,131.638445 C68.7301291,131.546326 68.7301291,131.500266 68.8222607,131.408147 C68.9143922,131.316028 68.960458,131.177849 69.0986553,131.085729 L69.3750499,130.809372 C69.4671815,130.717252 69.5132472,130.625133 69.6053788,130.533014 C69.7896419,130.348775 69.9278392,130.164537 70.1121023,129.980298 L105.444548,94.6525559 C111.340967,88.7569223 120.876581,88.7569223 126.773,94.6525559 C132.669418,100.54819 132.669418,110.082535 126.773,115.978168 L117.191319,125.558573 L264.279324,125.558573 C272.663294,125.558573 279.388896,132.32934 279.388896,140.666134 C279.388896,149.048988 272.617228,155.773695 264.279324,155.773695 L80.7072294,155.773695 C80.4769005,155.773695 80.2465717,155.727636 79.9701771,155.727636 C79.8780455,155.727636 79.7398482,155.681576 79.6477167,155.681576 C79.5555851,155.681576 79.3713221,155.635517 79.2791905,155.635517 C79.1409932,155.635517 79.0027959,155.635517 78.8185328,155.589457 C78.7264013,155.589457 78.6342697,155.543397 78.5421382,155.543397 C78.4039409,155.543397 78.2196778,155.497338 78.0814805,155.451278 C77.989349,155.451278 77.8972174,155.405218 77.8050859,155.405218 C77.6668886,155.359159 77.4826255,155.313099 77.3444282,155.313099 C77.2522966,155.267039 77.1601651,155.267039 77.0680336,155.22098 L76.6073758,155.12886 C76.5152443,155.082801 76.4231128,155.082801 76.3309812,155.036741 C76.2388497,154.990682 76.0545866,154.944622 75.9163893,154.898562 C75.8242578,154.852503 75.7321262,154.806443 75.6399947,154.806443 C75.5478631,154.760383 75.3636001,154.714324 75.2714685,154.668264 L74.9490081,154.576145 C74.8568766,154.530085 74.7186793,154.484026 74.6265477,154.437966 C74.5344162,154.391906 74.3501531,154.345847 74.2580216,154.299787 C74.16589,154.207668 74.0737585,154.207668 73.9816269,154.161608 C73.8434296,154.115548 73.7052323,154.069489 73.567035,153.97737 C73.4749035,153.88525 73.4288377,153.88525 73.3367062,153.839191 C73.1985089,153.747071 73.0603115,153.701012 72.9221142,153.608892 C72.8299827,153.516773 72.7839169,153.516773 72.6917854,153.470714 L72.2771934,153.194356 C72.1850619,153.148296 72.1389961,153.102236 72.0468646,153.056177 L71.6322727,152.779819 C71.5401411,152.6877 71.4940754,152.6877 71.4019438,152.59558 C71.3098123,152.503461 71.171615,152.457401 71.0794834,152.319223 L70.8030888,152.042865 C70.7109573,151.950745 70.6188257,151.904686 70.5266942,151.812567 C70.3424311,151.628328 70.158168,151.490149 69.9739049,151.305911 C69.7896419,151.121672 69.6514445,150.937433 69.4671815,150.753195 C69.3750499,150.661076 69.3289842,150.568956 69.2368526,150.476837 L68.960458,150.200479 C68.8683265,150.10836 68.7761949,149.970181 68.6840634,149.878062 C68.5919318,149.785942 68.5919318,149.739883 68.4998003,149.647764 C68.4076688,149.509585 68.2694714,149.371406 68.2234057,149.233227 C68.1773399,149.141108 68.1312741,149.095048 68.0852084,149.002929 L67.8088137,148.588392 C67.7166822,148.496273 67.7166822,148.450213 67.6706164,148.358094 C67.5784849,148.219915 67.5324191,148.081736 67.4402876,147.943557 C67.348156,147.851438 67.348156,147.805378 67.3020903,147.713259 C67.2560245,147.57508 67.2099587,147.436901 67.1178272,147.298722 C67.0256956,147.206603 67.0256956,147.114483 66.9796299,147.022364 C66.9335641,146.930245 66.8874983,146.746006 66.8414326,146.653887 C66.7953668,146.561768 66.749301,146.423589 66.7032353,146.33147 L66.6111037,146.009052 C66.5650379,145.916933 66.5189722,145.732694 66.4729064,145.640575 C66.4268406,145.548456 66.3807749,145.456337 66.3807749,145.364217 C66.2886433,145.272098 66.2886433,145.087859 66.2425776,144.949681 C66.1965118,144.857561 66.1965118,144.765442 66.150446,144.673323 L66.0583145,144.212726 C66.0583145,144.120607 66.0122487,144.074547 66.0122487,143.982428 C65.9661829,143.844249 65.9201172,143.660011 65.9201172,143.521832 C65.9201172,143.429712 65.8740514,143.337593 65.8740514,143.245474 C65.8279856,143.107295 65.8279856,142.923056 65.7819199,142.784878 C65.7819199,142.692758 65.7358541,142.600639 65.7358541,142.50852 C65.7358541,142.370341 65.6897883,142.232162 65.6897883,142.047923 C65.6437225,141.955804 65.6437225,141.771565 65.6437225,141.679446 C65.6437225,141.587327 65.5976568,141.449148 65.6437225,141.264909 C65.5976568,141.034611 65.5976568,140.804313 65.5976568,140.527955 C65.6897883,140.481896 65.7358541,140.251597 65.7358541,139.97524 Z" id="Shape"></path>
            </g>
        </g>
    </g>
</svg>