<?xml version="1.0" encoding="UTF-8"?>
<svg width="20px" height="20px" viewBox="0 0 20 20" version="1.1" xmlns="http://www.w3.org/2000/svg" xmlns:xlink="http://www.w3.org/1999/xlink">
    <!-- Generator: Sketch 49 (51002) - http://www.bohemiancoding.com/sketch -->
    <title>eraser</title>
    <desc>Created with Sketch.</desc>
    <defs></defs>
    <g id="Page-1" stroke="none" stroke-width="1" fill="none" fill-rule="evenodd">
        <g id="eraser" transform="translate(-2.000000, -2.000000)" fill="#FFFFFF" fill-rule="nonzero">
            <g id="noun_508213_cc" transform="translate(2.000000, 2.000000)">
                <path d="M19.5741506,5.58142546 L11.9213717,0.183128228 C11.4787371,-0.131594635 10.8601152,-0.0302432048 10.5401384,0.407168231 L0.194221229,14.495017 C-0.136421484,14.9484313 -0.0350954915,15.5832114 0.42353795,15.9032685 L5.99113461,19.8186343 C6.16178891,19.9359886 6.35910795,20 6.56709288,20 L9.75086223,20 C10.0708391,20 10.3694841,19.85064 10.5561372,19.58926 L19.8034673,6.98434263 C20.139443,6.53626262 20.032784,5.90148261 19.5741506,5.58142546 Z M13.09462,12.7613742 L9.24956522,18.0049771 L6.89240265,18.0049771 L2.41806012,14.8577485 L7.07372284,8.50994837 L13.09462,12.7613742 Z" id="Shape"></path>
            </g>
        </g>
    </g>
</svg>