<?xml version="1.0" encoding="UTF-8"?>
<svg width="24px" height="24px" viewBox="0 0 24 24" version="1.1" xmlns="http://www.w3.org/2000/svg" xmlns:xlink="http://www.w3.org/1999/xlink">
    <!-- Generator: Sketch 49 (51002) - http://www.bohemiancoding.com/sketch -->
    <title>推出全屏</title>
    <desc>Created with Sketch.</desc>
    <defs></defs>
    <g id="Page-1" stroke="none" stroke-width="1" fill="none" fill-rule="evenodd">
        <g id="推出全屏" fill="#A0A5AB" fill-rule="nonzero">
            <path d="M23.2566136,1.06453334 C23.1820905,0.998372043 23.1094311,0.930140962 23.0387203,0.85992 C22.96836,0.789487987 22.8958364,0.721250864 22.8212536,0.655306664 C22.7446136,0.586960008 22.6542936,0.501546656 22.5519736,0.399466664 C22.3815736,0.212373328 22.2103736,0.0927733359 22.0399736,0.0419466563 C21.8687469,-0.00930667969 21.7069069,-0.0136000078 21.5536536,0.0291466641 C21.3991203,0.0718133203 21.254427,0.139759992 21.1174403,0.233733328 C20.9894415,0.320761511 20.8695196,0.419112321 20.7591203,0.527599992 C20.3380481,0.946773163 19.9238857,1.37283057 19.5168003,1.80559999 C19.1670403,2.18064 18.7612003,2.59752 18.3001603,3.05797334 C18.0784003,3.27967999 17.8814936,3.42018668 17.7110936,3.47957334 C17.5398669,3.53936002 17.3527736,3.47573334 17.1468536,3.28778667 C16.9593603,3.10069334 16.7290403,2.88285333 16.4554936,2.6364 C16.2286408,2.43300696 16.006684,2.2242184 15.7898136,2.01021333 C15.4995736,1.70352 15.2388536,1.61808 15.0085336,1.75477334 C14.7782136,1.89103999 14.6369602,2.20624001 14.5856003,2.70045333 C14.5290264,3.20770819 14.4692296,3.71459843 14.4062136,4.22109333 C14.3381336,4.77466666 14.269227,5.33293334 14.2011469,5.89549334 C14.1344654,6.44460956 14.0705357,6.99405646 14.0093603,7.54381334 C13.9494403,8.08074668 13.9023469,8.56213334 13.8681069,8.98797333 C13.8338403,9.41383999 13.9023469,9.70770666 14.0731736,9.86959999 C14.2435469,10.0314667 14.5517603,10.0870133 14.9957069,10.0361867 C15.4567736,9.98493333 15.9687736,9.92512001 16.5321336,9.85722666 C17.0954936,9.78888 17.6721336,9.72522666 18.2616269,9.66544001 C18.8510936,9.60520001 19.4230403,9.54112001 19.9774136,9.4728 C20.4769179,9.41123446 20.9766548,9.3515718 21.4766136,9.29381334 C21.9201069,9.24256001 22.1761069,9.10672001 22.2446136,8.88504 C22.3126669,8.66335999 22.2022136,8.40792 21.9115469,8.11831999 C21.7403203,7.94791999 21.5356803,7.73090665 21.2963736,7.46650666 C21.1053719,7.25294416 20.9089524,7.0442896 20.7073069,6.84074667 C20.4680269,6.63613334 20.4089336,6.41488001 20.5279469,6.17610666 C20.6478136,5.93733333 20.8695469,5.66525332 21.1936269,5.35813334 C21.5829508,4.97128556 21.9672672,4.57943072 22.3464803,4.18266666 L23.3195469,3.16050666 C23.6787203,2.82005332 23.8914936,2.52149332 23.9604003,2.26605333 C24.0284803,2.01063998 23.8914936,1.71247999 23.5507203,1.37205333 C23.4317069,1.23493334 23.3336536,1.13242666 23.2566136,1.06450666 L23.2566136,1.06453334 Z M0.765066938,22.7612267 L0.970133602,22.9910133 C1.03818694,23.0589333 1.11138694,23.12728 1.18800026,23.1956267 C1.27981359,23.2782933 1.36933359,23.3634667 1.45642692,23.4510667 C1.64437359,23.63856 1.81946693,23.7534667 1.98170693,23.7961867 C2.13315357,23.8388719 2.29402897,23.8342475 2.4427736,23.7829333 C2.58832027,23.73168 2.72016026,23.6552267 2.84002692,23.5531467 C2.95484182,23.4551219 3.06594205,23.3528278 3.1730936,23.24648 C3.40165722,23.0186086 3.62797922,22.7884997 3.85202693,22.5561867 C4.0656536,22.3345067 4.27501359,22.1217867 4.47962693,21.9176267 C4.68656626,21.7108943 4.8914915,21.5021555 5.09437359,21.29144 C5.30569863,21.0723382 5.51904105,20.8551912 5.7343736,20.6400267 C5.93944027,20.41792 6.11024027,20.2949067 6.24637359,20.26928 C6.38336025,20.2436533 6.55416026,20.33336 6.75922692,20.5375467 C6.99754114,20.7729903 7.24104085,21.0031267 7.48954692,21.2277867 C7.72879953,21.444506 7.96372582,21.6659541 8.19418692,21.892 C8.48402693,22.1816 8.74432027,22.2627467 8.9746136,22.13504 C9.20493361,22.0073066 9.34618695,21.6873866 9.39754692,21.1765333 C9.44893359,20.7165067 9.50888025,20.2094933 9.57693361,19.6558933 C9.64586695,19.1018933 9.71392027,18.5440533 9.78200027,17.9814933 C9.84903213,17.4322603 9.91310417,16.8826701 9.9742136,16.3327467 C10.0332803,15.7962667 10.0812269,15.31488 10.1146136,14.8890133 C10.1488803,14.4802133 10.0765336,14.19488 9.89714693,14.0325867 C9.71778694,13.87072 9.41426693,13.8070667 8.98789359,13.8408 C8.47107944,13.8983192 7.9545061,13.9579819 7.43818692,14.0197867 C6.85766386,14.0889742 6.27702301,14.1571698 5.69626692,14.2243733 C5.12833649,14.2901761 4.56068697,14.3583811 3.99333361,14.4289867 C3.4462136,14.4969067 2.9513336,14.5566933 2.50741359,14.6079467 C2.06346694,14.6592 1.80277359,14.79504 1.7261336,15.0167467 C1.64949361,15.2384 1.75610693,15.49384 2.04592027,15.78344 C2.21714693,15.9538667 2.4089336,16.1537867 2.62256027,16.384 C2.80619244,16.5841987 2.99859398,16.7761732 3.19920026,16.95936 C3.42181359,17.18104 3.49413359,17.3894933 3.41709361,17.5855467 C3.34048027,17.7811733 3.14784028,18.0327467 2.8404536,18.3394667 C2.43657655,18.7417894 2.0351646,19.1465792 1.63624027,19.5538133 C1.29690982,19.9007753 0.955427676,20.2456264 0.611813602,20.5883467 C0.253493602,20.94632 0.0522669375,21.2658667 0.00986692969,21.54688 C-0.0325064062,21.8283733 0.11690693,22.1393333 0.458506922,22.47976 L0.765040266,22.7612533 L0.765066938,22.7612267 Z M22.4732003,14.01432 C22.0757804,14.0136896 21.694353,14.170797 21.4126669,14.4511467 C21.1313434,14.7311252 20.9730499,15.1115785 20.9727469,15.50848 L20.9727469,19.486 C20.9727853,19.8824827 20.8150141,20.2626765 20.5342669,20.54264 C20.2531463,20.8229906 19.8722741,20.9803438 19.4752536,20.98016 L15.4888536,20.98016 C15.0912654,20.9795097 14.7097497,21.1370474 14.4284536,21.4180267 C14.1475271,21.6986502 13.9902032,22.0797792 13.9913869,22.4768533 C13.9913869,23.30336 14.6776269,23.9735467 15.4858669,23.9735467 L20.9778669,23.9735467 C22.6320269,23.9739733 23.9732536,22.6306133 23.9732536,20.98528 L23.9732536,15.5050667 C23.9732949,15.1084489 23.8150593,14.7282132 23.5336536,14.44872 C23.2518816,14.1688412 22.8703457,14.0125503 22.4732003,14.01432 Z M1.5000536,9.96007999 C1.89754798,9.96071741 2.27904341,9.80355772 2.56074694,9.52312001 C2.84207717,9.24304995 3.00031719,8.86249091 3.00050693,8.46552 L3.00050693,4.48840001 C3.00035529,4.09184787 3.15807297,3.71154839 3.43882692,3.43149333 C3.71995851,3.15106123 4.10088784,2.99365622 4.49797359,2.99383999 L8.48437359,2.99383999 C8.8819787,2.99448321 9.26350637,2.83692532 9.54480026,2.55592001 C9.82572021,2.27530295 9.98304358,1.89418494 9.98186693,1.49712 C9.98186693,0.670186664 9.29562694,0 8.48738693,0 L2.99538694,0 C1.34120027,0 2.578125e-07,1.34335999 2.578125e-07,2.98826667 L2.578125e-07,8.46853334 C-0.000274968032,8.86529899 0.157854166,9.2457573 0.439280273,9.52543999 C0.721087142,9.80549521 1.10275918,9.96189066 1.5000536,9.96010666 L1.5000536,9.96007999 Z" id="Shape"></path>
        </g>
    </g>
</svg>