<?xml version="1.0" standalone="no"?><!DOCTYPE svg PUBLIC "-//W3C//DTD SVG 1.1//EN" "http://www.w3.org/Graphics/SVG/1.1/DTD/svg11.dtd"><svg t="1565870021736" class="icon" viewBox="0 0 1024 1024" version="1.1" xmlns="http://www.w3.org/2000/svg" p-id="2304" xmlns:xlink="http://www.w3.org/1999/xlink" width="32" height="32"><defs><style type="text/css"></style></defs><path d="M512.416 15.072C229.056 15.072 0 242.848 0 524.608 0 749.856 146.784 940.512 350.368 1008c25.44 5.056 34.784-10.976 34.784-24.48 0-11.808-0.864-52.288-0.864-94.496-142.528 30.368-172.224-60.736-172.224-60.736-22.912-59.04-56.832-74.24-56.832-74.24-46.656-31.2 3.392-31.2 3.392-31.2 51.744 3.36 78.912 52.288 78.912 52.288 45.824 77.6 119.616 55.68 149.312 42.176 4.256-32.896 17.824-55.68 32.224-68.32-113.696-11.808-233.312-55.68-233.312-251.392 0-55.68 20.352-101.248 52.608-136.672-5.088-12.64-22.912-64.96 5.088-134.976 0 0 43.264-13.504 140.832 52.32 40.736-10.976 84.832-16.864 128.096-16.864s87.392 5.92 128.096 16.864c97.568-65.792 140.832-52.32 140.832-52.32 28 70.016 10.176 122.336 5.088 134.976 33.088 35.424 52.608 80.992 52.608 136.672 0 195.712-119.616 238.752-234.144 251.392 18.656 16.032 34.784 46.4 34.784 94.496 0 68.32-0.832 123.168-0.832 140.032 0 13.504 9.344 29.536 34.784 24.48 203.616-67.488 350.368-258.144 350.368-483.392C1024.8 242.848 794.912 15.072 512.384 15.072z" fill="#242F3E" p-id="2305"></path><path d="M192.64 746.656c-0.768 2.624-4.576 3.488-7.648 1.76s-5.344-5.248-3.808-7.84c0.768-2.624 4.576-3.488 7.648-1.76s4.576 5.248 3.808 7.84z m18.304 23.552c-2.304 2.624-6.88 0.864-9.152-2.624-3.04-3.488-3.808-8.736-1.536-11.36s6.112-0.864 9.152 2.624c3.04 4.352 3.808 9.6 1.536 11.36z m18.336 30.56c-3.04 2.624-7.648 0-9.92-4.352-3.04-4.352-3.04-10.464 0-12.224 3.04-2.624 7.648 0 9.92 4.352 3.04 4.352 3.04 9.6 0 12.224z m25.184 29.664c-2.304 3.488-7.648 2.624-12.224-1.76-3.808-4.352-5.344-10.464-2.304-13.088 2.304-3.488 7.648-2.624 12.224 1.76 3.808 3.488 4.576 9.6 2.304 13.088z m34.336 16.576c-0.768 4.352-6.112 6.112-11.456 4.352s-8.384-6.976-7.648-10.464c0.768-4.352 6.112-6.112 11.456-4.352s8.384 6.112 7.648 10.464z m37.408 3.488c0 4.352-4.576 7.84-9.92 7.84s-9.92-3.488-9.92-7.84 4.576-7.84 9.92-7.84 9.92 3.488 9.92 7.84z m35.104-6.976c0.768 4.352-3.04 8.736-8.384 9.6s-9.92-1.76-10.688-6.112c-0.768-4.352 3.04-8.736 8.384-9.6s9.92 1.76 10.688 6.112z" fill="#1296DB" p-id="2306"></path></svg>