<svg width="14" height="16" viewBox="0 0 14 16" fill="none" xmlns="http://www.w3.org/2000/svg">
<path d="M8.23803 0.97579C7.51189 0.403464 6.48811 0.403464 5.76197 0.97579L0.380983 5.21696C0.1404 5.40658 0 5.69601 0 6.00234V15C0 15.5523 0.447715 16 1 16H3.84615C4.39844 16 4.84615 15.5523 4.84615 15V11.4828C4.84615 10.9305 5.29387 10.4828 5.84615 10.4828H8.15385C8.70613 10.4828 9.15385 10.9305 9.15385 11.4828V15C9.15385 15.5523 9.60156 16 10.1538 16H13C13.5523 16 14 15.5523 14 15V6.00234C14 5.69601 13.8596 5.40658 13.619 5.21696L8.23803 0.97579Z" fill="#A2A7AD"/>
</svg>
