<?xml version="1.0" encoding="UTF-8"?>
<svg width="28px" height="28px" viewBox="0 0 28 28" version="1.1" xmlns="http://www.w3.org/2000/svg" xmlns:xlink="http://www.w3.org/1999/xlink">
    <!-- Generator: Sketch 55.1 (78136) - https://sketchapp.com -->
    <title>官网-选中</title>
    <desc>Created with Sketch.</desc>
    <g id="页面1" stroke="none" stroke-width="1" fill="none" fill-rule="evenodd">
        <g id="官网-选中" fill-rule="nonzero">
            <path d="M0,13.90625 C0,21.5864598 6.2260402,27.8125 13.90625,27.8125 C21.5864598,27.8125 27.8125,21.5864598 27.8125,13.90625 C27.8125,6.2260402 21.5864598,4.26325641e-14 13.90625,4.26325641e-14 C6.2260402,4.26325641e-14 0,6.2260402 0,13.90625 Z" id="路径" fill="#000000"></path>
            <path d="M21.7,12.78125 L15.378125,6.2 C14.984375,5.790625 14.459375,5.565625 13.896875,5.565625 C13.334375,5.565625 12.809375,5.790625 12.415625,6.2 L6.096875,12.78125 C5.44375,13.459375 5.528125,14.046875 5.6375,14.29375 C5.715625,14.46875 5.975,14.946875 6.721875,14.946875 L7.646875,14.946875 L7.646875,20.009375 C7.646875,21.159375 8.471875,22.240625 9.64375,22.240625 L12.334375,22.240625 L12.334375,16.88125 C12.334375,16.30625 12.246875,15.9875 12.834375,15.9875 L14.9625,15.9875 C15.55,15.9875 15.4625,16.30625 15.4625,16.88125 L15.4625,22.2375 L18.153125,22.2375 C19.325,22.2375 20.15,21.15625 20.15,20.00625 L20.15,14.94375 L21.078125,14.94375 C21.825,14.94375 22.084375,14.465625 22.1625,14.290625 C22.26875,14.046875 22.353125,13.459375 21.7,12.78125 L21.7,12.78125 Z" id="路径" fill="#FFFFFF"></path>
        </g>
    </g>
</svg>