<?xml version="1.0" encoding="UTF-8"?>
<svg width="880px" height="684px" viewBox="0 0 880 684" version="1.1" xmlns="http://www.w3.org/2000/svg" xmlns:xlink="http://www.w3.org/1999/xlink">
    <!-- Generator: Sketch 49 (51002) - http://www.bohemiancoding.com/sketch -->
    <title>图片</title>
    <desc>Created with Sketch.</desc>
    <defs></defs>
    <g id="Page-1" stroke="none" stroke-width="1" fill="none" fill-rule="evenodd">
        <g id="图片" fill="#000000" fill-rule="nonzero">
            <path d="M801.763044,0 L78.2369559,0 C35.1403273,0 0,35.1108955 0,78.1714284 L0,605.828572 C0,648.889105 35.1403273,684 78.2369559,684 L801.763044,684 C844.859673,684 880,648.889105 880,605.828572 L880,78.1714284 C880,35.1108955 844.859673,1.24113794e-14 801.763044,1.24113794e-14 Z M821.322283,605.662954 C821.322283,617.421792 813.531738,625.205811 801.763044,625.205812 L78.2369559,625.205812 C66.468261,625.205812 58.6777172,615.434383 58.6777172,605.662954 L58.6777172,78.1714284 C58.6777172,66.4125904 66.4682619,58.6285716 78.2369559,58.6285716 L801.763044,58.6285716 C813.531739,58.6285716 821.322283,68.4 821.322283,78.1714284 L821.322283,605.662954 Z M670.815596,207.187409 L430.303259,429.942857 L297.200979,347.79661 C283.44321,340.01259 263.88397,340.01259 252.281032,351.771428 C252.281032,351.771428 168.242607,459.257143 125.145978,511.923487 C115.366359,523.682325 97.7961947,547.034382 97.7961956,547.034382 C78.2369568,586.120097 117.355434,586.120097 117.355434,586.120097 L760.987003,586.120097 C772.755698,586.120097 782.203805,576.679903 782.203804,564.921065 L782.203804,195.428572 C762.644566,117.257143 682.584291,195.428572 670.815596,207.187409 Z M248.302882,269.625182 C291.565266,269.625182 326.539838,234.679903 326.539838,191.453753 C326.539838,148.227603 291.565266,113.282325 248.302882,113.282324 C205.040497,113.282323 170.065926,148.227603 170.065926,191.453753 C170.065926,234.679904 205.206253,269.625182 248.302882,269.625182 Z" id="Shape"></path>
        </g>
    </g>
</svg>