<?xml version="1.0" encoding="UTF-8"?>
<svg width="10px" height="17px" viewBox="0 0 10 17" version="1.1" xmlns="http://www.w3.org/2000/svg" xmlns:xlink="http://www.w3.org/1999/xlink">
    <!-- Generator: Sketch 49 (51002) - http://www.bohemiancoding.com/sketch -->
    <title>指向-left</title>
    <desc>Created with Sketch.</desc>
    <defs></defs>
    <g id="Page-1" stroke="none" stroke-width="1" fill="none" fill-rule="evenodd">
        <g id="指向-left" fill="#000000" fill-rule="nonzero">
            <path d="M0.92,8.91978119 C0.92,9.08477439 0.982359633,9.249118 1.10837806,9.37448685 L8.46356689,16.7296757 C8.58511237,16.8512724 8.75013411,16.9193729 8.9220609,16.9188851 C9.09398769,16.9183974 9.25862039,16.8493617 9.37947401,16.7270774 C9.5012793,16.6059672 9.56998307,16.4414292 9.57047035,16.269662 C9.57095763,16.0978948 9.50318852,15.9329696 9.38207232,15.8111703 L2.48873453,8.91848203 L9.38077317,2.02579381 C9.50236985,1.90424833 9.57047036,1.73922659 9.56998262,1.5672998 C9.56949489,1.39537302 9.50045919,1.23074032 9.37817485,1.1098867 C9.25706466,0.988081399 9.09252664,0.919377635 8.92075944,0.918890352 C8.74899224,0.918403069 8.58406706,0.986172186 8.46226773,1.10728838 L1.10902764,8.46247721 C0.988063698,8.58288157 0.920041334,8.74650926 0.92,8.91718287 L0.92064958,8.91978119 L0.92,8.91978119 Z" id="Shape"></path>
        </g>
    </g>
</svg>