<?xml version="1.0" encoding="UTF-8"?>
<svg width="906px" height="904px" viewBox="0 0 906 904" version="1.1" xmlns="http://www.w3.org/2000/svg" xmlns:xlink="http://www.w3.org/1999/xlink">
    <!-- Generator: Sketch 49 (51002) - http://www.bohemiancoding.com/sketch -->
    <title>Shape</title>
    <desc>Created with Sketch.</desc>
    <defs></defs>
    <g id="Page-1" stroke="none" stroke-width="1" fill="none" fill-rule="evenodd">
        <g id="like-(2)" fill="#A2A7AD" fill-rule="nonzero">
            <path d="M509.186828,0.012606 L506.581576,0.012606 C452.696162,0.012606 405.371071,46.870949 405.371071,100.327111 L405.371071,126.131394 C405.371071,238.395152 332.374869,325.609697 230.612283,342.322101 L230.612283,903.449535 L701.565657,903.449535 C745.670061,903.449535 784.751435,872.439919 796.461495,828.343273 L901.603798,452.49002 C910.120323,421.497212 903.993131,388.208161 885.032323,362.511192 C866.883475,337.349495 838.16105,322.484687 807.607838,322.440727 L599.649212,322.440727 C606.738343,306.492444 611.011475,290.580363 611.973414,281.575111 L615.191515,267.689051 C629.773172,207.783758 627.26101,144.854304 607.947232,86.377697 L601.53301,68.235313 C588.037414,27.721374 551.00404,0.36299 509.186828,0.012606 Z M180.44404,345.426424 L98.831758,345.426424 C46.465536,345.426424 0.474748,395.580444 0.474747,452.713697 L0.474747,802.756202 C0.523878,858.352162 44.53002,903.414626 98.831758,903.483152 L180.44404,903.483152 L180.44404,345.426424 Z" id="Shape"></path>
        </g>
    </g>
</svg>