<?xml version="1.0" encoding="UTF-8"?>
<svg width="1024px" height="1024px" viewBox="0 0 1024 1024" version="1.1" xmlns="http://www.w3.org/2000/svg" xmlns:xlink="http://www.w3.org/1999/xlink">
    <!-- Generator: Sketch 49 (51002) - http://www.bohemiancoding.com/sketch -->
    <title>003-like</title>
    <desc>Created with Sketch.</desc>
    <defs></defs>
    <g id="Page-1" stroke="none" stroke-width="1" fill="none" fill-rule="evenodd">
        <g id="003-like" fill-rule="nonzero">
            <path d="M340.817967,955.285907 L340.817967,526.635949 C340.817967,501.767951 320.657969,481.609953 295.791971,481.609953 L191.181981,481.609953 L191.181981,1000.3119 L295.791971,1000.3119 C320.657969,1000.3099 340.817967,980.151904 340.817967,955.285907 Z" id="Shape" fill="#005BF6"></path>
            <path d="M957.143907,809.485921 C957.143907,773.677924 928.11591,744.647927 892.305913,744.647927 L939.161908,744.647927 C974.513905,744.647927 1003.2379,716.35193 1003.9659,681.173933 L972.453905,681.171933 C983.366196,681.186105 994.103984,678.433708 1003.6639,673.171934 C1000.3379,640.481937 972.727905,614.97394 939.161908,614.97394 L887.119913,614.96794 C922.47191,614.96794 951.193907,586.671943 951.923907,551.495946 L722.053929,551.495946 L744.351927,485.291953 L636.719938,485.291953 L674.719934,372.471964 C684.495933,343.445967 682.011933,313.32197 670.143935,287.621972 L649.461937,281.333973 L594.323942,433.723958 C577.027677,481.52799 542.826978,521.344854 498.179951,545.655947 L424.809959,585.607943 L426.041958,996.225903 C447.794433,1001.38967 470.07497,1003.99863 492.431952,1003.9999 L841.901918,1003.9999 C877.711915,1003.9999 906.739912,974.969905 906.739911,939.161908 C906.739911,903.353911 877.711914,874.323914 841.901918,874.323915 L892.303913,874.323915 C928.11591,874.323915 957.143907,845.293918 957.143907,809.485921 Z" id="Shape" fill="#FFCDAC"></path>
            <path d="M182.319982,887.079913 C182.319982,906.973208 198.446684,923.09991 218.339979,923.09991 C238.233273,923.09991 254.359975,906.973208 254.359975,887.079913 C254.359975,867.186618 238.233273,851.059917 218.339979,851.059917 C198.446684,851.059917 182.319982,867.186618 182.319982,887.079913 Z" id="Shape" fill="#FFFFFF"></path>
            <path d="M340.819967,655.779936 C335.557968,655.779936 330.399968,657.901936 326.679968,661.619935 C322.949406,665.383408 320.845172,670.46086 320.819969,675.759934 C320.819969,681.039933 322.957969,686.179933 326.679968,689.899933 C330.434282,693.644242 335.517642,695.750925 340.819967,695.759932 C346.079966,695.759932 351.239966,693.637932 354.957965,689.899933 C358.698585,686.142994 360.805212,681.061501 360.819965,675.759934 C360.819965,670.519935 358.679965,665.359935 354.957965,661.619935 C351.1977,657.888233 346.117617,655.789798 340.819967,655.779936 Z" id="Shape" fill="#000000"></path>
            <path d="M1023.9999,679.811934 C1023.9999,639.421938 995.617903,605.555941 957.755906,597.051942 C967.031905,583.162714 971.974801,566.831878 971.957905,550.129946 C971.957905,503.349951 933.899909,465.291954 887.119913,465.291955 L664.559935,465.291955 L693.673932,378.857963 C705.423931,343.975966 702.615931,306.74197 685.769933,274.015973 C668.923935,241.291976 640.251937,217.371979 605.039941,206.66598 L569.949944,195.999981 C559.767731,192.89811 548.940726,198.319087 545.323947,208.32998 L490.185952,360.717965 C474.565036,403.93409 443.648464,439.92741 403.283961,461.889955 L348.201966,491.885952 C336.353967,475.773954 317.277969,465.293955 295.791971,465.293955 L19.999998,465.293955 C8.955999,465.293955 0,474.249954 0,485.293953 L0,1003.9979 C0,1015.0419 8.955999,1023.9979 19.999998,1023.9979 L295.791971,1023.9979 C319.717969,1023.9979 340.651967,1010.9999 351.943966,991.703903 L380.173963,1002.7759 C415.931414,1016.82949 454.013936,1024.02941 492.433952,1023.9999 L841.903918,1023.9999 C888.683913,1023.9999 926.74191,985.941904 926.741909,939.161908 C926.760669,922.327536 921.742129,905.872574 912.331911,891.913913 C949.475907,882.887914 977.143905,849.365917 977.143905,809.485921 C977.160132,792.323951 971.940489,775.565416 962.181906,761.447926 C997.805903,751.387927 1023.9999,718.61193 1023.9999,679.811934 Z M939.161908,724.647929 L733.451928,724.647929 C722.407929,724.647929 713.45193,733.603928 713.45193,744.647927 C713.45193,755.691926 722.407929,764.647925 733.451928,764.647925 L892.305913,764.647925 C917.029911,764.647925 937.143909,784.761923 937.143908,809.485921 C937.143907,834.209919 917.02991,854.323917 892.305913,854.323917 L733.453928,854.323917 C722.409929,854.323917 713.45393,863.279916 713.45393,874.323915 C713.45393,885.367914 722.409929,894.323913 733.453928,894.323913 L841.903918,894.323913 C866.627916,894.323913 886.741914,914.437911 886.741913,939.161908 C886.741912,963.885905 866.627915,983.999904 841.903918,983.999904 L492.433952,983.999904 C459.011955,984.02531 425.883606,977.761673 394.777961,965.535906 L360.819965,952.217907 L360.819965,755.999926 C360.819965,744.955927 351.863966,735.999928 340.819967,735.999928 C329.775968,735.999928 320.819969,744.955927 320.819969,755.999926 L320.819969,958.967906 C320.819969,972.767905 309.59397,983.995904 295.791971,983.995904 L39.999996,983.999981 L39.999996,505.291951 L295.791971,505.291951 C309.59197,505.291951 320.819969,516.51795 320.819969,530.319948 L320.819969,598.229942 C320.819969,609.273941 329.775968,618.22994 340.819967,618.22994 C351.863966,618.22994 360.819965,609.273941 360.819965,598.229942 L360.819965,530.559948 L422.413959,497.017951 C471.364615,470.384421 508.85733,426.734826 527.799948,374.325963 L576.479944,239.789977 L593.403942,244.933976 C618.18194,252.467975 638.353938,269.295974 650.205937,292.321971 C662.059936,315.347969 664.033936,341.543966 655.767936,366.085964 L617.76794,478.903953 C615.71285,485.00644 616.720719,491.725074 620.475939,496.955951 C624.23369,502.186202 630.279735,505.287387 636.719938,505.287951 L887.119913,505.287951 C911.843911,505.287951 931.957909,525.401949 931.957909,550.125946 C931.957909,574.849943 911.843911,594.963942 887.119913,594.963942 L733.451928,594.963942 C722.407929,594.963942 713.45193,603.919941 713.45193,614.96394 C713.45193,626.007939 722.407929,634.963938 733.451928,634.963938 L800.337922,634.963938 C800.377922,634.963938 800.415922,634.969938 800.453922,634.969938 L939.161908,634.969938 C963.885906,634.969938 983.999904,655.083936 983.999904,679.807934 C983.999904,704.535932 963.885906,724.64793 939.161908,724.647929 Z" id="Shape" fill="#000000"></path>
            <path d="M218.345979,831.059919 C187.455982,831.059919 162.323984,856.189917 162.323984,887.079913 C162.323984,917.969909 187.453982,943.101908 218.345979,943.101908 C249.237976,943.101908 274.367974,917.97191 274.367973,887.079913 C274.367973,856.191916 249.235975,831.059918 218.345979,831.059919 Z M218.345979,903.101912 C209.51198,903.101912 202.323981,895.913913 202.32398,887.079913 C202.323979,878.245913 209.511979,871.059915 218.345979,871.059915 C227.179979,871.059915 234.367977,878.245914 234.367977,887.079913 C234.367977,895.913912 227.179978,903.101911 218.345979,903.101912 Z M597.637942,39.999996 C602.899941,39.999996 608.057941,37.859996 611.77794,34.137997 C615.49794,30.419997 617.637939,25.259998 617.63794,19.999998 C617.637941,14.739998 615.49994,9.579999 611.77794,5.859999 C608.05594,2.139999 602.899941,0 597.637942,0 C592.377943,0 587.217943,2.138 583.499943,5.859999 C579.779943,9.579999 577.637944,14.739998 577.637944,19.999998 C577.637944,25.259998 579.777944,30.419997 583.499943,34.137997 C587.25737,37.8766608 592.337416,39.9829861 597.637942,39.999996 Z M597.639942,74.665993 C586.595943,74.665993 577.639944,83.621992 577.639944,94.665991 L577.639944,143.333986 C577.639944,154.377985 586.595943,163.333984 597.639942,163.333984 C608.683941,163.333984 617.63994,154.377985 617.63994,143.333986 L617.63994,94.665991 C617.63994,83.621992 608.685941,74.665993 597.639942,74.665993 Z M716.78593,282.531972 C716.78593,293.575971 725.741929,302.53197 736.785928,302.53197 L860.117916,302.53197 C871.161915,302.53197 880.117914,293.575971 880.117914,282.531972 C880.117914,271.487973 871.161915,262.531974 860.117916,262.531974 L736.785928,262.531974 C725.739929,262.531974 716.78593,271.485973 716.78593,282.531972 Z M335.107967,302.47797 L458.441955,302.47797 C469.485954,302.47797 478.441953,293.521971 478.441953,282.477972 C478.441953,271.433973 469.485954,262.477974 458.441955,262.477974 L335.107967,262.477974 C324.063968,262.477974 315.107969,271.433973 315.107969,282.477972 C315.107969,293.521971 324.061968,302.47797 335.107967,302.47797 Z M470.413954,183.551982 C474.319954,187.455982 479.437953,189.409981 484.555953,189.409982 C489.673953,189.409983 494.791952,187.455982 498.697951,183.551982 C506.50795,175.741983 506.50795,163.077984 498.697951,155.265985 L440.467957,97.035991 C432.655958,89.227992 419.995959,89.227992 412.18196,97.035991 C404.371961,104.84599 404.371961,117.509989 412.18196,125.321988 L470.413954,183.551982 Z M710.707931,189.447981 C716.013546,189.454523 721.103006,187.346331 724.849929,183.589982 L783.079924,125.359988 C790.889923,117.549989 790.889923,104.88599 783.079924,97.073991 C775.267925,89.265992 762.607926,89.265992 754.793926,97.073991 L696.563932,155.303985 C688.753933,163.113984 688.753933,175.777983 696.563932,183.589982 C700.311721,187.346261 705.401754,189.454392 710.707931,189.447981 Z" id="Shape" fill="#000000"></path>
        </g>
    </g>
</svg>