<?xml version="1.0" encoding="UTF-8"?>
<svg width="40px" height="28px" viewBox="0 0 40 28" version="1.1" xmlns="http://www.w3.org/2000/svg" xmlns:xlink="http://www.w3.org/1999/xlink">
    <!-- Generator: Sketch 49 (51002) - http://www.bohemiancoding.com/sketch -->
    <title>menu (1)</title>
    <desc>Created with Sketch.</desc>
    <defs></defs>
    <g id="Page-1" stroke="none" stroke-width="1" fill="none" fill-rule="evenodd">
        <g id="menu-(1)" fill="#A0A5AB" fill-rule="nonzero">
            <path d="M2.01405152,0.0159325527 L37.9859485,0.0159325527 C38.5378373,0.0159325527 39.0088294,0.210980172 39.3989246,0.60107541 C39.7890198,0.991170648 39.9840674,1.46216269 39.9840674,2.01405152 C39.9840674,2.56594036 39.7890198,3.0369324 39.3989246,3.42702763 C39.0088294,3.81712287 38.5378373,4.01217049 37.9859485,4.01217049 L2.01405152,4.01217049 C1.46216269,4.01217049 0.991170648,3.81712287 0.60107541,3.42702763 C0.210980172,3.0369324 0.0159325527,2.56594036 0.0159325527,2.01405152 C0.0159325527,1.46216269 0.210980172,0.991170648 0.60107541,0.60107541 C0.991170648,0.210980172 1.46216269,0.0159325527 2.01405152,0.0159325527 Z M2.01405152,23.9971972 L37.9859485,23.9971972 C38.5378373,23.9971972 39.0088294,24.1922448 39.3989246,24.58234 C39.7890198,24.9724353 39.9840674,25.4434273 39.9840674,25.9953162 C39.9840674,26.547205 39.7890198,27.018197 39.3989246,27.4082923 C39.0088294,27.7983875 38.5378373,27.9934351 37.9859485,27.9934351 L2.01405152,27.9934351 C1.46216269,27.9934351 0.991170648,27.7983875 0.60107541,27.4082923 C0.210980172,27.018197 0.0159325527,26.547205 0.0159325527,25.9953162 C0.0159325527,25.4434273 0.210980172,24.9724353 0.60107541,24.58234 C0.991170648,24.1922448 1.46216269,23.9971972 2.01405152,23.9971972 Z M2.01405152,12.0065649 L37.9859485,12.0065649 C38.5378373,12.0065649 39.0088294,12.2016125 39.3989246,12.5917077 C39.7890198,12.981803 39.9840674,13.452795 39.9840674,14.0046838 C39.9840674,14.5565727 39.7890198,15.0275647 39.3989246,15.41766 C39.0088294,15.8077552 38.5378373,16.0028028 37.9859485,16.0028028 L2.01405152,16.0028028 C1.46216269,16.0028028 0.991170648,15.8077552 0.60107541,15.41766 C0.210980172,15.0275647 0.0159325527,14.5565727 0.0159325527,14.0046838 C0.0159325527,13.452795 0.210980172,12.981803 0.60107541,12.5917077 C0.991170648,12.2016125 1.46216269,12.0065649 2.01405152,12.0065649 Z" id="Shape"></path>
        </g>
    </g>
</svg>