<svg width="16" height="4" viewBox="0 0 16 4" fill="none" xmlns="http://www.w3.org/2000/svg">
<path d="M4.704 14.584C5.536 14.584 6.16 13.912 6.16 13.064C6.16 12.184 5.536 11.512 4.704 11.512C3.872 11.512 3.232 12.184 3.232 13.064C3.232 13.912 3.872 14.584 4.704 14.584ZM10.9728 14.584C11.8047 14.584 12.4288 13.912 12.4288 13.064C12.4288 12.184 11.8047 11.512 10.9728 11.512C10.1408 11.512 9.50075 12.184 9.50075 13.064C9.50075 13.912 10.1408 14.584 10.9728 14.584ZM17.2415 14.584C18.0735 14.584 18.6975 13.912 18.6975 13.064C18.6975 12.184 18.0735 11.512 17.2415 11.512C16.4095 11.512 15.7695 12.184 15.7695 13.064C15.7695 13.912 16.4095 14.584 17.2415 14.584Z" transform="translate(-3 -11)" fill="#A2A7AD"/>
</svg>
