<?xml version="1.0" encoding="UTF-8"?>
<svg width="1075px" height="477px" viewBox="0 0 1075 477" version="1.1" xmlns="http://www.w3.org/2000/svg" xmlns:xlink="http://www.w3.org/1999/xlink">
    <!-- Generator: Sketch 49 (51002) - http://www.bohemiancoding.com/sketch -->
    <title>Group 39</title>
    <desc>Created with Sketch.</desc>
    <defs></defs>
    <g id="Page-1" stroke="none" stroke-width="1" fill="none" fill-rule="evenodd">
        <g id="Group-39">
            <g id="Group" opacity="0.5" transform="translate(146.000000, 117.000000)" fill="#47E6B1" fill-rule="nonzero">
                <rect id="Rectangle-path" x="7" y="0" width="3" height="17"></rect>
                <rect id="Rectangle-path" transform="translate(8.500000, 8.500000) rotate(90.000000) translate(-8.500000, -8.500000) " x="7" y="0" width="3" height="17"></rect>
            </g>
            <g id="Group" opacity="0.5" transform="translate(862.000000, 49.000000)" fill="#47E6B1" fill-rule="nonzero">
                <rect id="Rectangle-path" x="7" y="0" width="3" height="17"></rect>
                <rect id="Rectangle-path" transform="translate(8.500000, 8.500000) rotate(90.000000) translate(-8.500000, -8.500000) " x="7" y="0" width="3" height="17"></rect>
            </g>
            <g id="Group" opacity="0.5" transform="translate(191.000000, 307.000000)" fill="#47E6B1" fill-rule="nonzero">
                <rect id="Rectangle-path" x="7" y="0" width="3" height="17"></rect>
                <rect id="Rectangle-path" transform="translate(8.500000, 8.500000) rotate(90.000000) translate(-8.500000, -8.500000) " x="7" y="0" width="3" height="17"></rect>
            </g>
            <path d="M918.288554,202.809549 C916.575045,202.066734 915.692637,200.155568 916.238554,198.369549 C916.279574,198.239492 916.306396,198.105378 916.318554,197.969549 C916.375996,197.154884 915.889577,196.399842 915.124036,196.115366 C914.358495,195.83089 913.49705,196.085064 913.008554,196.739549 C912.9284,196.855101 912.861322,196.979194 912.808554,197.109549 C912.043776,198.804976 910.134166,199.663228 908.358554,199.109549 C908.228749,199.067556 908.094525,199.040711 907.958554,199.029549 C907.145824,198.977132 906.395324,199.46523 906.113668,200.229394 C905.832012,200.993559 906.086216,201.851971 906.738554,202.339549 C906.849012,202.424757 906.970013,202.495341 907.098554,202.549549 C908.808676,203.295828 909.689638,205.203862 909.148554,206.989549 C909.097081,207.120186 909.069967,207.259144 909.068554,207.399549 C909.016137,208.212279 909.504235,208.962779 910.2684,209.244435 C911.032565,209.526091 911.890976,209.271887 912.378554,208.619549 C912.454893,208.505183 912.521781,208.384784 912.578554,208.259549 C913.33942,206.565591 915.245705,205.706904 917.018554,206.259549 C917.151783,206.301526 917.289317,206.328362 917.428554,206.339549 C918.241284,206.391966 918.991784,205.903868 919.27344,205.139703 C919.555096,204.375538 919.300892,203.517127 918.648554,203.029549 C918.534712,202.946584 918.414316,202.873009 918.288554,202.809549 Z" id="Shape" fill="#4D8AF0" fill-rule="nonzero" opacity="0.5"></path>
            <path d="M842.288554,303.809549 C840.575045,303.066734 839.692637,301.155568 840.238554,299.369549 C840.279574,299.239492 840.306396,299.105378 840.318554,298.969549 C840.375996,298.154884 839.889577,297.399842 839.124036,297.115366 C838.358495,296.83089 837.49705,297.085064 837.008554,297.739549 C836.9284,297.855101 836.861322,297.979194 836.808554,298.109549 C836.043776,299.804976 834.134166,300.663228 832.358554,300.109549 C832.228749,300.067556 832.094525,300.040711 831.958554,300.029549 C831.145824,299.977132 830.395324,300.46523 830.113668,301.229394 C829.832012,301.993559 830.086216,302.851971 830.738554,303.339549 C830.849012,303.424757 830.970013,303.495341 831.098554,303.549549 C832.808676,304.295828 833.689638,306.203862 833.148554,307.989549 C833.097081,308.120186 833.069967,308.259144 833.068554,308.399549 C833.016137,309.212279 833.504235,309.962779 834.2684,310.244435 C835.032565,310.526091 835.890976,310.271887 836.378554,309.619549 C836.454893,309.505183 836.521781,309.384784 836.578554,309.259549 C837.33942,307.565591 839.245705,306.706904 841.018554,307.259549 C841.151783,307.301526 841.289317,307.328362 841.428554,307.339549 C842.241284,307.391966 842.991784,306.903868 843.27344,306.139703 C843.555096,305.375538 843.300892,304.517127 842.648554,304.029549 C842.534712,303.946584 842.414316,303.873009 842.288554,303.809549 Z" id="Shape" fill="#4D8AF0" fill-rule="nonzero" opacity="0.5"></path>
            <path d="M203.288554,216.809549 C201.575045,216.066734 200.692637,214.155568 201.238554,212.369549 C201.279574,212.239492 201.306396,212.105378 201.318554,211.969549 C201.375996,211.154884 200.889577,210.399842 200.124036,210.115366 C199.358495,209.83089 198.49705,210.085064 198.008554,210.739549 C197.9284,210.855101 197.861322,210.979194 197.808554,211.109549 C197.043776,212.804976 195.134166,213.663228 193.358554,213.109549 C193.228749,213.067556 193.094525,213.040711 192.958554,213.029549 C192.145824,212.977132 191.395324,213.46523 191.113668,214.229394 C190.832012,214.993559 191.086216,215.851971 191.738554,216.339549 C191.849012,216.424757 191.970013,216.495341 192.098554,216.549549 C193.789134,217.313792 194.646431,219.216992 194.098554,220.989549 C194.047081,221.120186 194.019967,221.259144 194.018554,221.399549 C193.966137,222.212279 194.454235,222.962779 195.2184,223.244435 C195.982565,223.526091 196.840976,223.271887 197.328554,222.619549 C197.404893,222.505183 197.471781,222.384784 197.528554,222.259549 C198.28942,220.565591 200.195705,219.706904 201.968554,220.259549 C202.101783,220.301526 202.239317,220.328362 202.378554,220.339549 C203.191284,220.391966 203.941784,219.903868 204.22344,219.139703 C204.505096,218.375538 204.250892,217.517127 203.598554,217.029549 C203.500727,216.94875 203.397117,216.87522 203.288554,216.809549 Z" id="Shape" fill="#4D8AF0" fill-rule="nonzero" opacity="0.5"></path>
            <circle id="Oval" fill="#F55F44" fill-rule="nonzero" opacity="0.5" cx="824" cy="162" r="6"></circle>
            <circle id="Oval" fill="#4D8AF0" fill-rule="nonzero" opacity="0.5" cx="210" cy="28" r="6"></circle>
            <circle id="Oval" fill="#47E6B1" fill-rule="nonzero" opacity="0.5" cx="535" cy="6" r="6"></circle>
            <circle id="Oval" fill="#F55F44" fill-rule="nonzero" opacity="0.5" cx="306" cy="371" r="6"></circle>
            <ellipse id="Oval" fill="#F2F2F2" fill-rule="nonzero" cx="540.64346" cy="441.3094" rx="527.5" ry="34.9216"></ellipse>
            <path d="M1006.86381,311.54964 C1015.17083,314.569552 1024.47921,312.013069 1030.07849,305.173887 C1035.67778,298.334706 1036.34645,288.704832 1031.74613,281.157419 C1027.14581,273.610006 1018.28008,269.791565 1009.63541,271.6344 L1010.15634,282.3466 L1005.0882,273.16615 C1000.1141,275.503334 996.271394,279.719726 994.40453,284.88876 C993.741533,286.699404 993.338483,288.59487 993.2074,290.51862 C992.550053,299.792593 998.124522,308.377335 1006.86381,311.54964 Z" id="Shape" fill="#57B894" fill-rule="nonzero"></path>
            <path d="M1031.94116,435.79306 C1030.1521,426.68279 1037.90446,418.60626 1045.56202,413.35655 C1053.21958,408.10684 1062.16702,402.94876 1064.77977,394.03971 C1068.53477,381.23584 1057.34977,369.5099 1048.64413,359.39795 C1042.18538,351.893734 1036.63883,343.650441 1032.12054,334.84057 C1030.30947,331.30807 1028.64496,327.61529 1028.16833,323.67431 C1027.48192,317.99885 1029.30526,312.35122 1031.14223,306.93758 C1037.26173,288.90312 1043.80454,271.01977 1050.77066,253.28753" id="Shape" stroke="#3F3D56"></path>
            <path d="M1007.72093,308.7917 C1016.02795,311.811612 1025.33633,309.255129 1030.93561,302.415947 C1036.5349,295.576766 1037.20357,285.946892 1032.60325,278.399479 C1028.00293,270.852066 1019.1372,267.033625 1010.49253,268.87646 L1011.01346,279.58866 L1005.94531,270.40821 C1000.97121,272.745396 997.128512,276.961788 995.26165,282.13082 C994.598653,283.941464 994.195603,285.83693 994.06452,287.76068 C993.40717,297.034654 998.981639,305.619398 1007.72093,308.7917 Z" id="Shape" stroke="#3F3D56"></path>
            <path d="M1029.39736,249.58816 C1031.81327,242.922201 1037.46005,237.94726 1044.37729,236.39052 L1046.0909,246.5743 L1049.2679,235.87864 C1058.31897,236.012864 1066.2451,241.982678 1068.87306,250.644873 C1071.50102,259.307069 1068.22794,268.674526 1060.77717,273.815122 C1053.32639,278.955718 1043.40713,278.690192 1036.24204,273.158349 C1029.07695,267.626506 1026.30972,258.097357 1029.39733,249.58816 L1029.39736,249.58816 Z" id="Shape" fill="#57B894" fill-rule="nonzero"></path>
            <path d="M1030.54018,245.9109 C1032.95609,239.244946 1038.60288,234.27001 1045.52011,232.71327 L1047.23372,242.89705 L1050.41072,232.20138 C1059.46179,232.335604 1067.38792,238.305418 1070.01588,246.967613 C1072.64384,255.629809 1069.37076,264.997266 1061.91999,270.137862 C1054.46921,275.278458 1044.54995,275.012932 1037.38486,269.481089 C1030.21977,263.949246 1027.45254,254.420097 1030.54015,245.9109 L1030.54018,245.9109 Z" id="Shape" stroke="#3F3D56"></path>
            <path d="M1044.99074,359.60435 C1054.93639,363.212016 1066.00597,358.783183 1070.71847,349.310934 C1075.43097,339.838686 1072.28633,328.338188 1063.40974,322.58168 L1060.96853,330.80094 L1059.23748,320.49712 C1059.22037,320.489044 1059.20265,320.482324 1059.18448,320.47702 C1052.19379,317.936364 1044.37861,319.319808 1038.6849,324.105859 C1032.99118,328.891911 1030.28466,336.352852 1031.58555,343.676263 C1032.88645,350.999675 1037.99696,357.072034 1044.99068,359.60435 L1044.99074,359.60435 Z" id="Shape" fill="#57B894" fill-rule="nonzero"></path>
            <path d="M1045.981,355.87967 C1055.92665,359.487336 1066.99623,355.058503 1071.70873,345.586254 C1076.42123,336.114006 1073.27659,324.613508 1064.4,318.857 L1061.95879,327.07626 L1060.22774,316.77244 C1060.21063,316.764365 1060.1929,316.757645 1060.17474,316.75234 C1053.18405,314.211684 1045.36887,315.595128 1039.67516,320.381179 C1033.98144,325.167231 1031.27492,332.628172 1032.57581,339.951583 C1033.87671,347.274995 1038.98722,353.347354 1045.98094,355.87967 L1045.981,355.87967 Z" id="Shape" stroke="#3F3D56"></path>
            <path d="M1023.32382,394.16698 C1025.02626,403.854158 1033.28098,411.024979 1043.11104,411.356022 C1052.9411,411.687064 1061.65954,405.087839 1064.00985,395.537144 C1066.36016,385.986449 1061.69989,376.094891 1052.83882,371.826277 C1043.97774,367.557662 1033.33796,370.078784 1027.3344,377.86961 L1036.60707,391.82615 L1023.93713,384.41847 C1022.95474,387.571929 1022.7444,390.915263 1023.32382,394.16698 Z" id="Shape" fill="#57B894" fill-rule="nonzero"></path>
            <path d="M1024.18094,391.40904 C1025.88338,401.096218 1034.1381,408.267039 1043.96816,408.598082 C1053.79822,408.929124 1062.51666,402.329899 1064.86697,392.779204 C1067.21728,383.228509 1062.55701,373.336951 1053.69594,369.068337 C1044.83486,364.799722 1034.19508,367.320844 1028.19152,375.11167 L1037.46419,389.06822 L1024.79425,381.66053 C1023.81186,384.813988 1023.60152,388.157323 1024.18094,391.40904 Z" id="Shape" stroke="#3F3D56"></path>
            <path d="M9.00746,362.24875 C14.46533,364.232933 20.5811437,362.553298 24.2600025,358.059823 C27.9388612,353.566347 28.3781949,347.239314 25.3556793,342.280511 C22.3331637,337.321709 16.5081829,334.812934 10.82846,336.02375 L11.17073,343.06186 L7.84086,337.03014 C4.57278277,338.565722 2.0480568,341.33598 0.8215,344.73214 C0.385898088,345.921769 0.121085176,347.167128 0.03496,348.43107 C-0.396892787,354.524207 3.2656231,360.164494 9.00746,362.24875 Z" id="Shape" fill="#57B894" fill-rule="nonzero"></path>
            <path d="M25.48374,443.87894 C24.30829,437.89333 29.40174,432.58694 34.43289,429.13774 C39.46404,425.68854 45.34267,422.29964 47.05931,416.44623 C49.52642,408.03385 42.17764,400.3297 36.45789,393.68596 C32.2143734,388.755553 28.5701907,383.339558 25.6016,377.55131 C24.3109904,375.277725 23.4319378,372.794127 23.00492,370.21488 C22.55392,366.486 23.75192,362.77541 24.95883,359.21854 C28.97945,347.369567 33.2781933,335.61988 37.85506,323.96948" id="Shape" stroke="#3F3D56"></path>
            <path d="M9.57061,360.43673 C15.028473,362.420895 21.1442691,360.741254 24.8231159,356.247785 C28.5019627,351.754316 28.9412954,345.427299 25.9187906,340.468504 C22.8962859,335.509709 17.0713235,333.000931 11.39161,334.21173 L11.73388,341.24985 L8.404,335.21808 C5.13592211,336.753661 2.61119584,339.52392 1.38464,342.92008 C0.94904277,344.109707 0.684229986,345.355062 0.5981,346.619 C0.166218569,352.712159 3.82874584,358.352478 9.57061,360.43673 Z" id="Shape" stroke="#3F3D56"></path>
            <path d="M23.81241,321.53893 C25.3997046,317.159273 29.1097481,313.890646 33.6545,312.86784 L34.78037,319.55877 L36.86774,312.53152 C42.8144375,312.619717 48.0220312,316.541988 49.7486391,322.233193 C51.4752471,327.924398 49.3247836,334.078969 44.4295023,337.456425 C39.534221,340.833881 33.0171046,340.659431 28.3095201,337.024924 C23.6019355,333.390418 21.7838076,327.129615 23.81241,321.53893 Z" id="Shape" fill="#57B894" fill-rule="nonzero"></path>
            <path d="M24.56327,319.1229 C26.1505674,314.743247 29.8606104,311.474624 34.40536,310.45182 L35.53123,317.14275 L37.6186,310.1155 C43.5652981,310.203699 48.7728912,314.125972 50.4994971,319.817178 C52.226103,325.508384 50.0756364,331.662955 45.1803528,335.040409 C40.2850693,338.417863 33.7679522,338.243409 29.0603695,334.608899 C24.3527868,330.974389 22.5346631,324.713584 24.56327,319.1229 Z" id="Shape" stroke="#3F3D56"></path>
            <path d="M34.05755,393.82157 C40.5920277,396.191901 47.8649718,393.282085 50.9611817,387.058633 C54.0573915,380.835181 51.9912901,373.279126 46.15919,369.497 L44.55527,374.8972 L43.41794,368.12741 C43.4067024,368.122108 43.3950668,368.117695 43.38314,368.11421 C38.7898796,366.443925 33.654369,367.352377 29.9128564,370.497051 C26.1713438,373.641726 24.3928681,378.544356 25.2479703,383.356496 C26.1030725,388.168636 29.4617019,392.158418 34.05755,393.82157 Z" id="Shape" fill="#57B894" fill-rule="nonzero"></path>
            <path d="M34.70814,391.37439 C41.2426177,393.744721 48.5155618,390.834905 51.6117717,384.611453 C54.7079815,378.388001 52.6418801,370.831946 46.80978,367.04982 L45.20586,372.45002 L44.06853,365.68022 C44.0572924,365.674918 44.0456568,365.670505 44.03373,365.66702 C36.9348358,363.091829 29.0924406,366.759016 26.51725,373.85791 C23.9420594,380.956804 27.6092458,388.799199 34.70814,391.37439 Z" id="Shape" stroke="#3F3D56"></path>
            <path d="M19.822,416.52985 C20.9405483,422.894501 26.3640556,427.605851 32.8225872,427.823339 C39.2811188,428.040826 45.0092848,423.705003 46.5534662,417.430018 C48.0976477,411.155033 45.0357544,404.656106 39.2138594,401.851561 C33.3919644,399.047016 26.401438,400.703456 22.457,405.82218 L28.54931,414.99189 L20.22493,410.12489 C19.5794917,412.196776 19.4413035,414.393411 19.822,416.52985 Z" id="Shape" fill="#57B894" fill-rule="nonzero"></path>
            <path d="M20.38513,414.71783 C21.5036783,421.082481 26.9271856,425.793831 33.3857172,426.011319 C39.8442488,426.228806 45.5724148,421.892983 47.1165962,415.617998 C48.6607777,409.343013 45.5988844,402.844086 39.7769894,400.039541 C33.9550944,397.234996 26.964568,398.891436 23.02013,404.01016 L29.11244,413.17987 L20.78805,408.31287 C20.1426151,410.384757 20.0044302,412.581392 20.38513,414.71783 Z" id="Shape" stroke="#3F3D56"></path>
        </g>
    </g>
</svg>