<?xml version="1.0" encoding="UTF-8"?>
<svg width="24px" height="24px" viewBox="0 0 24 24" version="1.1" xmlns="http://www.w3.org/2000/svg" xmlns:xlink="http://www.w3.org/1999/xlink">
    <!-- Generator: Sketch 49 (51002) - http://www.bohemiancoding.com/sketch -->
    <title>全屏 (1)</title>
    <desc>Created with Sketch.</desc>
    <defs></defs>
    <g id="Page-1" stroke="none" stroke-width="1" fill="none" fill-rule="evenodd">
        <g id="全屏-(1)" fill="#A0A5AB" fill-rule="nonzero">
            <path d="M1.50202933,9.99776345 C2.33048507,9.99776419 3.002391,9.32675413 3.0034956,8.49829912 L3.0034956,4.51040469 C3.0034956,3.68359726 3.67415055,3.01294233 4.50095796,3.01294233 L8.48484849,3.01294233 C8.88355181,3.01454679 9.26638856,2.85687233 9.54831666,2.57494423 C9.83024477,2.29301613 9.98791923,1.91017938 9.98631477,1.51147606 C9.98306439,0.686706198 9.31759699,0.0176706168 8.4928563,0.010009783 L2.99748974,0.010009783 C1.3437055,0.0144184234 0.00476417862,1.35514976 0.00256499707,3.00893842 L0.00256499707,8.50030107 C0.00256499707,9.3271085 0.667214076,9.9997654 1.50403127,9.9997654 L1.50202933,9.99776345 Z M19.4835894,3.01094036 C20.3103969,3.01094036 20.9810518,3.68359726 20.9810518,4.51040469 L20.9810518,8.49629717 C20.9810518,9.32310461 21.6477028,9.99375953 22.4825181,9.99375953 C23.3113275,9.99375953 23.9839844,9.30909091 23.9839844,8.49829912 L23.9839844,3.00693647 C23.9795796,1.35393204 22.6400647,0.0153118822 20.9870577,0.0120117302 L15.4916911,0.0120117302 C15.094045,0.0114690204 14.7126462,0.16974208 14.4322205,0.451671436 C14.1517948,0.733600792 13.9955635,1.11584045 13.9982327,1.51347801 C13.9982327,2.34228739 14.6688876,3.01294233 15.495695,3.01294233 L19.4835894,3.01294233 L19.4835894,3.01094036 Z M19.4835894,20.9904985 L15.4996989,20.9904985 C15.101342,20.9894288 14.7190215,21.1473393 14.4375275,21.429209 C14.1560336,21.7110788 13.9986333,22.0936096 14.0002346,22.4919648 C14.0002346,23.3207742 14.6849032,23.9934311 15.495695,23.9934311 L20.9910616,23.9934311 C22.644066,23.9890264 23.9826862,22.6495114 23.9859863,20.9965044 L23.9859863,15.5011378 C23.9870637,15.103145 23.8290266,14.7212298 23.5470387,14.4403699 C23.2650509,14.1595101 22.8825053,14.0030049 22.48452,14.0056774 C22.0866751,14.0046137 21.7047602,14.1619118 21.423065,14.4428559 C21.1413698,14.7237999 20.9830523,15.1052934 20.9830538,15.5031398 L20.9830538,19.4930362 C20.9808494,20.3199283 20.3104838,20.9893989 19.4835894,20.9904985 Z M9.98831672,22.4919648 C9.98938048,22.0941198 9.83208231,21.712205 9.55113826,21.4305098 C9.27019421,21.1488145 8.88870077,20.9904971 8.49085436,20.9904985 L4.50095796,20.9904985 C3.67393234,20.9904985 3.0034956,20.3200618 3.0034956,19.4930362 L3.0034956,15.5031398 C3.00403162,15.1051294 2.84588556,14.7233248 2.56407398,14.4422647 C2.28226241,14.1612046 1.90003683,14.0040786 1.50202933,14.0056774 C0.677267665,14.0100326 0.00912539605,14.6763908 0.00256499707,15.5011378 L0.00256499707,20.9965044 C0.00256499707,22.6501192 1.34988073,23.9914291 2.99748974,23.9914291 L8.4928563,23.9914291 C8.89084909,23.9925066 9.27276431,23.8344694 9.55362419,23.5524815 C9.83448408,23.2704937 9.99098928,22.8879481 9.98831672,22.4899629 L9.98831672,22.4919648 Z" id="Shape"></path>
        </g>
    </g>
</svg>