<?xml version="1.0" standalone="no"?><!DOCTYPE svg PUBLIC "-//W3C//DTD SVG 1.1//EN" "http://www.w3.org/Graphics/SVG/1.1/DTD/svg11.dtd"><svg t="1556517942316" class="icon" style="" viewBox="0 0 1030 1024" version="1.1" xmlns="http://www.w3.org/2000/svg" p-id="1236" xmlns:xlink="http://www.w3.org/1999/xlink" width="48.28125" height="48"><defs><style type="text/css"></style></defs><path d="M600.57284 499.358025c0 50.567901-44.246914 94.814815-94.814815 94.814815s-94.814815-44.246914-94.814815-94.814815 44.246914-94.814815 94.814815-94.814815c56.888889 6.320988 94.814815 44.246914 94.814815 94.814815z" fill="#A2A7AD" p-id="1237"></path><path d="M922.94321 410.864198h-56.888889c-6.320988-31.604938-18.962963-63.209877-37.925926-94.814815l37.925926-37.925926c37.925926-37.925926 37.925926-94.814815 0-132.740741-37.925926-37.925926-94.814815-37.925926-132.740741 0L701.708642 189.62963c-31.604938-18.962963-63.209877-31.604938-94.814815-37.925926v-56.888889C606.893827 44.246914 562.646914 0 512.079012 0S417.264198 44.246914 417.264198 94.814815v56.888889c-31.604938 6.320988-63.209877 18.962963-94.814815 37.925926l-37.925926-37.925926c-37.925926-37.925926-94.814815-37.925926-132.740741 0-37.925926 37.925926-37.925926 94.814815 0 132.74074l37.925926 37.925926c-18.962963 31.604938-31.604938 63.209877-37.925926 94.814815h-56.888889c-50.567901 0-94.814815 44.246914-94.814815 94.814815s44.246914 94.814815 94.814815 94.814815h56.888889c6.320988 31.604938 18.962963 63.209877 37.925926 94.814815l-37.925926 37.925926c-37.925926 37.925926-37.925926 94.814815 0 132.74074 37.925926 37.925926 94.814815 37.925926 132.740741 0l37.925926-37.925926c31.604938 18.962963 63.209877 31.604938 94.814815 37.925926v56.888889c0 50.567901 44.246914 94.814815 94.814814 94.814815s94.814815-44.246914 94.814815-94.814815v-56.888889c31.604938-6.320988 63.209877-18.962963 94.814815-37.925926l37.925926 37.925926c37.925926 37.925926 94.814815 37.925926 132.740741 0 37.925926-37.925926 37.925926-94.814815 0-132.74074L828.128395 695.308642c18.962963-31.604938 31.604938-63.209877 37.925926-94.814815h56.888889c50.567901 0 94.814815-44.246914 94.814815-94.814815s-44.246914-94.814815-94.814815-94.814814z m-417.185185 278.123456c-101.135802 0-189.62963-82.17284-189.62963-189.629629s82.17284-189.62963 189.62963-189.62963 189.62963 82.17284 189.629629 189.62963-82.17284 189.62963-189.629629 189.629629z" fill="#A2A7AD" p-id="1238"></path></svg>