<?xml version="1.0" standalone="no"?><!DOCTYPE svg PUBLIC "-//W3C//DTD SVG 1.1//EN" "http://www.w3.org/Graphics/SVG/1.1/DTD/svg11.dtd"><svg t="1563590591758" class="icon" viewBox="0 0 1024 1024" version="1.1" xmlns="http://www.w3.org/2000/svg" p-id="12613" xmlns:xlink="http://www.w3.org/1999/xlink" width="32" height="32"><defs><style type="text/css"></style></defs><path d="M644.64 905.61l-11.83-11.19a175.65 175.65 0 0 0-242 0.08L379 905.61l-15.13-5.88A410.6 410.6 0 0 1 253 835.34l-12.47-10.14 3.7-15.69a178.33 178.33 0 0 0-18.91-129.82A177 177 0 0 0 123 598.24l-15.37-4.67-2.5-15.94a398.92 398.92 0 0 1 0-128.77l2.5-15.94 15.37-4.66A178 178 0 0 0 244.23 217l-3.62-15.69 12.47-10.14a409.88 409.88 0 0 1 110.83-64.39l15.09-5.89L390.87 132a176.12 176.12 0 0 0 121 48.37 175.15 175.15 0 0 0 121-48.29l11.83-11.19 15.21 5.88a410.24 410.24 0 0 1 110.9 64.39l12.48 10.14-3.6 15.7a179 179 0 0 0 18.91 129.9 177.06 177.06 0 0 0 102.3 81.44l15.45 4.66 2.49 15.94a411.85 411.85 0 0 1 5.16 64.31 422.1 422.1 0 0 1-5.15 64.31l-2.49 15.94-15.45 4.66a178.73 178.73 0 0 0-102.38 81.45c-22.21 38.71-29.13 86.12-19 129.9l3.62 15.61-12.48 10.14a407.13 407.13 0 0 1-110.83 64.39zM297.51 804.76a355.75 355.75 0 0 0 70.67 41 227.2 227.2 0 0 1 287.32 0 357.21 357.21 0 0 0 70.58-41 231.1 231.1 0 0 1-0.32-69.46 228.94 228.94 0 0 1 144.15-180.93 360.69 360.69 0 0 0 2.5-41.13 343.58 343.58 0 0 0-2.5-41.13 228.87 228.87 0 0 1-144.14-180.92 231 231 0 0 1 0.4-69.46 355.72 355.72 0 0 0-70.67-41 226.17 226.17 0 0 1-143.66 51.19 225.66 225.66 0 0 1-84.11-16.26 227.88 227.88 0 0 1-59.56-34.93 360.36 360.36 0 0 0-70.67 41 230.93 230.93 0 0 1 0.41 69.46 228.92 228.92 0 0 1-84.11 146.4 228.88 228.88 0 0 1-60 34.45 359.46 359.46 0 0 0-2.5 41.13 341.62 341.62 0 0 0 2.5 41.13 228.88 228.88 0 0 1 60 34.45 228 228 0 0 1 56.1 65.19 229.45 229.45 0 0 1 27.6 150.83z m0 0" fill="#ffffff" p-id="12614"></path><path d="M511.84 667.78c-85.23 0-154.53-69.3-154.53-154.53s69.3-154.53 154.53-154.53S666.37 428 666.37 513.25a153.08 153.08 0 0 1-4.67 37.83 25.73 25.73 0 1 1-49.9-12.56 102 102 0 0 0 3.14-25.19 102.82 102.82 0 1 0-57.31 92.4 25.75 25.75 0 0 1 22.94 46.12 155.26 155.26 0 0 1-68.73 15.94z" fill="#ffffff" p-id="12615"></path></svg>