<?xml version="1.0" standalone="no"?><!DOCTYPE svg PUBLIC "-//W3C//DTD SVG 1.1//EN" "http://www.w3.org/Graphics/SVG/1.1/DTD/svg11.dtd"><svg t="1563540476681" class="icon" viewBox="0 0 1024 1024" version="1.1" xmlns="http://www.w3.org/2000/svg" p-id="6972" xmlns:xlink="http://www.w3.org/1999/xlink" width="32" height="32"><defs><style type="text/css"></style></defs><path d="M297.2272731 488.98863613s-13.42329538 13.42329538-30.68181848 13.42329539-30.68181848-13.42329538-30.68181849-13.42329539c0-49.85795462 15.34090925-111.22159076 21.09375-132.31534075-5.75284075-3.8352269-7.67045462-7.67045462-7.67045461-15.34090925s5.75284075-15.34090925 13.42329538-17.25852226v-34.51704539l9.58806848 5.75284076v28.76420463c7.67045462 1.91761387 13.42329538 9.58806848 13.42329538 17.25852226 0 5.75284075-3.8352269 11.50568152-7.67045463 15.34090925 3.8352269 13.42329538 11.50568152 42.1875 15.34090925 76.70454537 1.91761387 17.2585231 3.8352269 36.43465925 3.83522772 55.61079538z" fill="#bfbfbf" p-id="6973"></path><path d="M322.15625 477.48295462v21.09375c1.91761387 19.17613613 7.67045462 38.3522731 21.09375 55.61079538 7.67045462 9.58806848 11.50568152 9.58806848 23.01136387 5.75284075 3.8352269 0 9.58806848 17.2585231 11.50568151 21.09375001 13.42329538 30.68181848 36.43465925 67.1164769 78.62215924 82.45738614 28.76420462 11.50568152 61.36363613 13.42329538 90.12784076 5.75284158 30.68181848-9.58806848 55.61079538-30.68181848 74.78693152-57.52840923 17.2585231-23.01136387 23.01136387-38.3522731 26.84659158-44.10511387 1.91761387-1.91761387 1.91761387-5.75284075 3.8352269-5.75284076s5.75284075 1.91761387 7.67045462 1.91761386c5.75284075 0 9.58806848-3.8352269 13.42329538-7.67045461 11.50568152-15.34090925 19.17613613-34.51704538 21.09375-55.61079539v-21.09375c0-11.50568152-7.67045462-21.09375-21.09375-21.09375h-1.91761386l-1.91761304-3.83522772s0-9.58806848 1.91761304-13.42329538c0-15.34090925 1.91761387-32.59943152 3.83522773-47.94034076 0-5.75284075 1.91761387-13.42329538 1.91761385-19.17613614l-40.26988697-11.50568235c-1.91761387 0-19.17613613-3.8352269-19.17613613-3.83522688-9.58806848-1.91761387-65.19886387-5.75284075-118.89204538-7.67045463-42.1875 0-82.45738613 3.8352269-92.04545462 5.75284076-3.8352269 0-9.58806848 1.91761387-11.50568152 1.91761387 0 0-30.68181848 5.75284075-42.1875 11.50568151l-11.50568235 3.83522772c0 15.34090925 1.91761387 30.68181848 1.91761387 46.0227269 0 11.50568152 1.91761387 24.9289769 1.91761387 36.43465924h-1.91761387c-13.42329538 0-19.17613613 11.50568152-21.09375 21.09375z m63.28125-32.59943152c34.51704538 0 65.19886387-1.91761387 92.04545462-7.67045462 9.58806848-1.91761387 21.09375-3.8352269 32.59943151-5.75284158 34.51704538-7.67045462 61.36363613-21.09375 84.375-38.35227228 11.50568152 13.42329538 26.84659075 24.9289769 49.85795462 34.51704538h1.91761387v9.58806848c-1.91761387 30.68181848-5.75284075 70.95170462-11.50568152 92.04545462-5.75284075 24.9289769-47.94034075 124.64488613-130.39772772 122.72727228-13.42329538 0-26.84659075-3.8352269-38.35227228-7.67045463-42.1875-13.42329538-65.19886387-53.69318152-82.45738697-107.38636385-7.67045462-23.01136387-11.50568152-49.85795462-11.50568151-80.53977228 0-5.75284075 0-13.42329538-1.91761386-19.17613614 5.75284075 7.67045462 11.50568152 7.67045462 15.34090924 7.67045462z" fill="#bfbfbf" p-id="6974"></path><path d="M669.24431848 301.0625c0-11.50568152 0-5.75284075-1.91761386-17.2585231-1.91761387-5.75284075-1.91761387-9.58806848-7.67045462-11.50568152-5.75284075-3.8352269-11.50568152-7.67045462-17.2585231-9.58806848-15.34090925-7.67045462-30.68181848-13.42329538-47.94034077-15.34090842-36.43465925-7.67045462-72.86931848-9.58806848-109.30397688-7.67045461-15.34090925 0-30.68181848 1.91761387-46.02272773 3.83522688-24.9289769 3.8352269-49.85795462 9.58806848-72.86931765 23.01136387-7.67045462 1.91761387-13.42329538 5.75284075-15.34090925 15.34090925-5.75284075 23.01136387-5.75284075 44.10511387-5.75284075 67.11647688v1.91761387c13.42329538-5.75284075 28.76420462-9.58806848 44.10511303-11.50568152 9.58806848-1.91761387 21.09375-3.8352269 32.59943235-3.83522772 7.67045462-1.91761387 38.3522731-3.8352269 67.11647688-3.8352269 26.84659075 0 53.69318152 0 82.45738697 1.91761304 19.17613613 1.91761387 40.26988613 3.8352269 59.44602228 7.67045461 3.8352269 0 9.58806848 1.91761387 13.42329537 3.83522774l26.84659077 7.67045461c0-13.42329538 0-40.26988613-1.91761304-51.77556848z" fill="#bfbfbf" p-id="6975"></path><path d="M331.74431848 278.05113613c3.8352269-17.2585231 15.34090925-23.01136387 24.9289769-28.76420461 23.01136387-13.42329538 47.94034075-21.09375 80.5397731-24.9289769 13.42329538-1.91761387 63.28125-3.8352269 70.95170462-3.83522772 32.59943152 0 61.36363613 1.91761387 90.12784077 7.67045462 19.17613613 3.8352269 36.43465925 9.58806848 51.77556765 17.2585231 5.75284075 3.8352269 19.17613613 11.50568152 19.17613696 11.50568151 9.58806848 5.75284075 13.42329538 15.34090925 15.34090842 23.01136387 1.91761387 9.58806848 1.91761387 19.17613613 1.91761386 26.84659075v7.67045463s67.1164769-38.3522731 99.71590924-57.52840925c-5.75284075-3.8352269-7.67045462-5.75284075-11.50568152-7.67045461-84.375-47.94034075-168.75-95.88068152-255.04261386-143.82102228-9.58806848-5.75284075-15.34090925-5.75284075-24.92897772 1e-8-82.45738613 47.94034075-166.83238613 93.96306848-249.28977228 141.90340923-5.75284075 3.8352269-9.58806848 5.75284075-17.2585231 11.50568152 15.34090925 7.67045462 97.79829538 57.52840924 97.79829538 57.52840924 1.91761387-15.34090925 3.8352269-26.84659075 5.75284158-38.35227311zM776.63068152 757.45454538c-42.1875-26.84659075-143.8210231-63.28125-145.73863614-63.28125 0 0-24.9289769 51.77556848-34.51704538 72.86931849-7.67045462 13.42329538-19.17613613 15.34090925-26.84659076 1.91761303-7.67045462-11.50568152-26.84659075-38.3522731-28.76420462-42.1875-5.75284075-7.67045462-11.50568152-9.58806848-19.17613614-1.91761303-1.91761387 1.91761387-9.58806848 9.58806848-13.42329538 9.58806765-3.8352269 0-11.50568152-7.67045462-13.4232962-9.58806765-7.67045462-7.67045462-11.50568152-7.67045462-19.17613615 1.91761303s-19.17613613 28.76420462-26.84659075 36.43465923c-15.34090925 19.17613613-28.76420462 15.34090925-36.43465925 0-9.58806848-24.9289769-28.76420462-70.95170462-28.76420462-70.95170461-1.91761387 0-103.55113613 36.43465925-145.73863613 63.28125-95.88068152 59.4460231-93.96306848 162.99715925-93.96306848 162.99715924h734.4460231c1.91761387 3.8352269 13.42329538-84.375-101.6335231-161.07954538z" fill="#bfbfbf" p-id="6976"></path><path d="M880.18181848 933.875c-1.91761387 0-1.91761387 0 0 0H143.81818152c-7.67045462 0-13.42329538-5.75284075-13.42329539-11.50568152 0-1.91761387 0-28.76420462 11.50568235-63.28125 11.50568152-32.59943152 34.51704538-76.70454538 88.2102269-111.22159158 42.1875-28.76420462 147.65625-65.19886387 149.57386387-65.19886303 5.75284075-1.91761387 11.50568152 1.91761387 13.42329537 5.75284075 0 1.91761387 0 1.91761387 5.75284076 11.50568151 5.75284075 15.34090925 17.2585231 42.1875 24.92897772 59.44602311 1.91761387 3.8352269 3.8352269 5.75284075 3.8352269 5.75284076s3.8352269-1.91761387 9.58806848-7.67045462c3.8352269-5.75284075 11.50568152-17.2585231 19.17613614-24.9289769 3.8352269-3.8352269 5.75284075-7.67045462 7.67045463-11.50568235 3.8352269-5.75284075 9.58806848-11.50568152 19.17613613-11.50568151s15.34090925 5.75284075 19.17613614 9.58806848l3.83522773 3.8352269c1.91761387-1.91761387 3.8352269-1.91761387 3.83522688-3.8352269 5.75284075-5.75284075 13.42329538-9.58806848 19.17613697-9.58806848 7.67045462 0 13.42329538 3.8352269 19.17613615 11.50568151 1.91761387 1.91761387 7.67045462 9.58806848 13.42329537 19.17613697 5.75284075 7.67045462 11.50568152 17.2585231 15.34090925 23.01136303l3.83522689 3.83522774s1.91761387-1.91761387 1.91761386-3.83522774c3.8352269-7.67045462 34.51704538-72.86931848 36.43465925-72.86931765 1.91761387-3.8352269 7.67045462-7.67045462 13.42329538-5.75284158 3.8352269 0 107.38636387 36.43465925 149.57386385 65.19886385 26.84659075 17.2585231 49.85795462 38.3522731 67.1164769 59.44602312 13.42329538 17.2585231 24.9289769 36.43465925 32.59943152 55.61079537 5.75284075 13.42329538 7.67045462 28.76420462 9.58806848 42.1875 0 1.91761387 1.91761387 15.34090925 0 21.09375-1.91761387 1.91761387-7.67045462 5.75284075-11.50568152 5.75284076zM157.2414769 908.9460231h709.5170462c-1.91761387-24.9289769-15.34090925-84.375-97.7982962-139.9857962-32.59943152-21.09375-105.46875-49.85795462-132.31534077-59.44602228-7.67045462 15.34090925-23.01136387 46.0227269-30.68181765 63.28125-3.8352269 5.75284075-9.58806848 17.2585231-23.01136386 19.17613614-5.75284075 0-17.2585231 0-26.84659075-13.42329538-3.8352269-5.75284075-9.58806848-13.42329538-15.34090925-23.01136386-5.75284075-9.58806848-11.50568152-15.34090925-13.42329538-19.17613614l-5.75284076 5.75284075c-5.75284075 5.75284075-9.58806848 7.67045462-15.34090924 7.67045463-3.8352269 0-9.58806848-1.91761387-15.34090924-7.67045463-1.91761387-1.91761387-5.75284075-3.8352269-5.75284076-5.75284075-1.91761387 3.8352269-5.75284075 7.67045462-7.67045462 11.50568152-5.75284075 9.58806848-13.42329538 19.17613613-19.17613614 26.84659158-13.42329538 17.2585231-24.9289769 19.17613613-32.59943235 17.25852228-9.58806848-1.91761387-19.17613613-7.67045462-23.01136303-21.09375-7.67045462-17.2585231-17.2585231-44.10511387-24.92897772-59.44602228-28.76420462 9.58806848-99.71590924 36.43465925-132.31534076 59.44602228-70.95170462 42.1875-84.375 109.3039769-88.21022772 138.06818234z m529.26136385-581.03693235c-1.91761387 0-3.8352269 0-5.75284075-1.91761385-3.8352269-1.91761387-5.75284075-5.75284075-5.75284076-11.50568152v-7.67045463c0-7.67045462 0-15.34090925-1.91761386-24.92897688-1.91761387-7.67045462-3.8352269-11.50568152-9.58806848-15.34090925-5.75284075-3.8352269-13.42329538-9.58806848-17.25852228-11.50568152-15.34090925-7.67045462-30.68181848-13.42329538-47.94034075-17.2585231-26.84659075-5.75284075-55.61079538-7.67045462-86.29261387-7.67045462-7.67045462 0-55.61079538 1.91761387-69.03409076 3.83522772-30.68181848 3.8352269-53.69318152 11.50568152-74.78693234 23.01136303-9.58806848 5.75284075-15.34090925 9.58806848-19.17613615 21.09375-1.91761387 9.58806848-3.8352269 21.09375-3.83522688 34.51704539 0 3.8352269-1.91761387 7.67045462-5.75284077 11.50568235-3.8352269 1.91761387-9.58806848 1.91761387-13.4232962 0 0 0-84.375-47.94034075-97.79829538-57.52840925-9.58806848 0-11.50568152-3.8352269-11.50568152-7.67045462s1.91761387-9.58806848 5.75284075-11.50568152c1.91761387-1.91761387 3.8352269-1.91761387 5.75284077-3.83522773 3.8352269-1.91761387 7.67045462-5.75284075 11.50568235-7.67045462 17.2585231-9.58806848 36.43465925-19.17613613 53.69318151-30.68181765C358.59090925 168.74715924 423.7897731 130.39488613 490.90625 93.9602269c13.42329538-7.67045462 24.9289769-7.67045462 36.43465925 0 57.52840924 32.59943152 116.97443152 67.1164769 174.50284075 99.71590923 26.84659075 15.34090925 51.77556848 30.68181848 78.62215925 46.02272774 3.8352269 1.91761387 7.67045462 3.8352269 11.50568151 7.67045461l1.91761386 1.91761304c3.8352269 1.91761387 5.75284075 5.75284075 5.75284076 9.58806848s-1.91761387 7.67045462-5.75284076 9.58806848c-30.68181848 17.2585231-99.71590924 57.52840924-99.71590924 57.52840842-3.8352269 1.91761387-5.75284075 1.91761387-7.67045462 1.91761385z m-178.33806765-120.80965923c32.59943152 0 63.28125 3.8352269 92.0454538 9.58806848 21.09375 3.8352269 38.3522731 9.58806848 55.6107962 19.17613613 5.75284075 3.8352269 19.17613613 11.50568152 21.09375 11.50568235 13.42329538 9.58806848 17.2585231 21.09375 21.09375 30.68181765 1.91761387 5.75284075 1.91761387 11.50568152 1.91761303 17.25852311 17.2585231-9.58806848 42.1875-24.9289769 63.28125-36.43465924-24.9289769-13.42329538-47.94034075-26.84659075-72.86931765-40.26988613-57.52840924-32.59943152-116.97443152-65.19886387-174.50284158-99.71590925-5.75284075-3.8352269-7.67045462-3.8352269-11.50568152 0-69.03409076 36.43465925-134.23295462 72.86931848-199.43181848 109.3039769L253.12215924 256.95738613c19.17613613 11.50568152 46.0227269 26.84659075 63.28125001 36.43465925 0-7.67045462 1.91761387-13.42329538 3.83522688-19.17613614 5.75284075-23.01136387 21.09375-30.68181848 30.68181849-36.43465924 23.01136387-13.42329538 49.85795462-21.09375 84.375-26.84659076 15.34090925-1.91761387 65.19886387-3.8352269 72.86931848-3.83522772z" fill="#bfbfbf" p-id="6977"></path><path d="M448.71875 479.40056848m-11.50568152 0a11.50568152 11.50568152 0 1 0 23.01136304 0 11.50568152 11.50568152 0 1 0-23.01136304 0Z" fill="#bfbfbf" p-id="6978"></path><path d="M567.61079538 479.40056848m-11.50568151 0a11.50568152 11.50568152 0 1 0 23.01136303 0 11.50568152 11.50568152 0 1 0-23.01136303 0Z" fill="#bfbfbf" p-id="6979"></path><path d="M544.59943152 592.5397731s-17.2585231 11.50568152-36.43465842 11.50568152-36.43465925-11.50568152-36.43465923-11.50568152 17.2585231 5.75284075 36.43465923 5.75284077 36.43465925-5.75284075 36.43465842-5.75284077z" fill="#bfbfbf" p-id="6980"></path><path d="M437.21306848 184.08806848c-3.8352269-5.75284075-1.91761387-13.42329538 3.8352269-15.34090924l47.94034075-26.84659076c5.75284075-3.8352269 13.42329538-1.91761387 15.34090925 3.8352269 3.8352269 5.75284075 1.91761387 13.42329538-3.8352269 15.34090924L454.47159076 189.84090925c-5.75284075 1.91761387-13.42329538 0-17.25852228-5.75284077z" fill="#bfbfbf" p-id="6981"></path><path d="M414.20170462 197.51136387m-11.50568152 0a11.50568152 11.50568152 0 1 0 23.01136303 0 11.50568152 11.50568152 0 1 0-23.01136303 0Z" fill="#bfbfbf" p-id="6982"></path></svg>