<?xml version="1.0" standalone="no"?><!DOCTYPE svg PUBLIC "-//W3C//DTD SVG 1.1//EN" "http://www.w3.org/Graphics/SVG/1.1/DTD/svg11.dtd"><svg t="1563541026227" class="icon" viewBox="0 0 1024 1024" version="1.1" xmlns="http://www.w3.org/2000/svg" p-id="11591" xmlns:xlink="http://www.w3.org/1999/xlink" width="32" height="32"><defs><style type="text/css"></style></defs><path d="M951.381765 653.076172c-104.406957-123.583746-285.521067-154.479682-285.521067-154.479682l-122.518369 95.883941-122.518368-95.883941S242.905983 529.492427 138.499025 649.880041L51.138102 350.509071 0 365.424351l89.491678 308.959364 40.48433-10.653771c7.45764-1.065377 14.91528-2.130754 22.37292-2.130755 68.184135 0 124.649123 55.39961 124.649122 124.649123s-55.39961 124.649123-124.649122 124.649123c-8.523017 0-15.980657-1.065377-23.438297-2.130755 26.634428 43.680462 113.995351 119.322237 253.559754 115.060729V671.187583s160.871945 0 254.625131 68.184136l18.111411 11.719148 15.980656-11.719148C766.006147 671.187583 926.878091 671.187583 926.878091 671.187583v86.295547c42.615085 8.523017 76.707152 37.288199 92.687809 77.772529 11.719148-47.94197-6.392263-108.668466-68.184135-182.179487z" fill="#bfbfbf" p-id="11592"></path><path d="M155.545059 781.986803m-99.080072 0a99.080072 99.080072 0 1 0 198.160144 0 99.080072 99.080072 0 1 0-198.160144 0Z" fill="#bfbfbf" p-id="11593"></path><path d="M907.701303 878.936121m-96.949317 0a96.949318 96.949318 0 1 0 193.898635 0 96.949318 96.949318 0 1 0-193.898635 0Z" fill="#bfbfbf" p-id="11594"></path><path d="M552.930723 223.729194m-223.729194 0a223.729194 223.729194 0 1 0 447.458389 0 223.729194 223.729194 0 1 0-447.458389 0Z" fill="#bfbfbf" p-id="11595"></path><path d="M412.300944 1022.762032h225.859949V772.398409c-77.77253-63.922627-225.859949-74.576398-225.859949-74.576398V1022.762032zM783.052181 878.936121c0-67.118758 46.876593-122.518368 113.995351-122.518368v-58.595742s-148.087419 10.653771-225.859949 74.576398V1022.762032h225.859949v-21.307543c-67.118758 0-113.995351-55.39961-113.995351-122.518368z" fill="#bfbfbf" p-id="11596"></path></svg>