<?xml version="1.0" encoding="UTF-8"?>
<svg width="24px" height="24px" viewBox="0 0 24 24" version="1.1" xmlns="http://www.w3.org/2000/svg" xmlns:xlink="http://www.w3.org/1999/xlink">
    <!-- Generator: Sketch 49 (51002) - http://www.bohemiancoding.com/sketch -->
    <title>text</title>
    <desc>Created with Sketch.</desc>
    <defs></defs>
    <g id="Page-1" stroke="none" stroke-width="1" fill="none" fill-rule="evenodd">
        <g id="text" fill="#FFFFFF" fill-rule="nonzero">
            <rect id="Rectangle-path" opacity="0.01" x="0" y="0" width="24" height="24"></rect>
            <path d="M4.5,5 L4.5,4 C3.947715,4 3.5,4.447715 3.5,5 L4.5,5 Z M19.5,5 L20.5,5 C20.5,4.447715 20.0523,4 19.5,4 L19.5,5 Z M18.5,8 C18.5,8.55228 18.9477,9 19.5,9 C20.0523,9 20.5,8.55228 20.5,8 L18.5,8 Z M3.5,8 C3.5,8.55228 3.947715,9 4.5,9 C5.052285,9 5.5,8.55228 5.5,8 L3.5,8 Z M13,5 C13,4.447715 12.55229,4 12,4 C11.44772,4 11,4.447715 11,5 L13,5 Z M10,18.5 C9.44772,18.5 9,18.9477 9,19.5 C9,20.0523 9.44772,20.5 10,20.5 L10,18.5 Z M14,20.5 C14.5523,20.5 15,20.0523 15,19.5 C15,18.9477 14.5523,18.5 14,18.5 L14,20.5 Z M4.5,6 L19.5,6 L19.5,4 L4.5,4 L4.5,6 Z M18.5,5 L18.5,8 L20.5,8 L20.5,5 L18.5,5 Z M3.5,5 L3.5,8 L5.5,8 L5.5,5 L3.5,5 Z M11,5 L11,19.5 L13,19.5 L13,5 L11,5 Z M12,18.5 L10,18.5 L10,20.5 L12,20.5 L12,18.5 Z M12,20.5 L14,20.5 L14,18.5 L12,18.5 L12,20.5 Z" id="Shape"></path>
        </g>
    </g>
</svg>