<?xml version="1.0" encoding="UTF-8"?>
<svg width="19px" height="19px" viewBox="0 0 19 19" version="1.1" xmlns="http://www.w3.org/2000/svg" xmlns:xlink="http://www.w3.org/1999/xlink">
    <!-- Generator: Sketch 55.1 (78136) - https://sketchapp.com -->
    <title>untitled_eca319f3</title>
    <desc>Created with Sketch.</desc>
    <g id="Page-1" stroke="none" stroke-width="1" fill="none" fill-rule="evenodd">
        <g id="untitled_eca319f3" fill="#A2A7AD" fill-rule="nonzero">
            <path d="M2.01271875,3.35446875 L3.68995313,1.34179687 L15.0951563,1.34179687 L16.7723906,3.35446875 L2.01271875,3.35446875 Z M12.076125,12.747 L12.076125,15.4305937 L6.70898438,15.4305937 L6.70898438,12.747 L2.68364063,12.747 L8.93165625,6.2353125 C9.18590625,5.969625 9.60051563,5.97032812 9.85345313,6.23395312 L16.1014688,12.747 L12.076125,12.747 L12.076125,12.747 Z M18.4120313,3.46584375 L16.4745,0.559546875 C16.2691875,0.251625 15.803625,-4.06785716e-13 15.4359375,-4.06785716e-13 L3.349125,-4.06785716e-13 C2.98884375,-4.06785716e-13 2.51653125,0.250921875 2.3105625,0.559546875 L0.37303125,3.46584375 C0.16771875,3.77376562 1.56319402e-12,4.32660937 1.56319402e-12,4.697625 L1.56319402e-12,17.4493125 C1.56319402e-12,18.1879687 0.598453125,18.7850625 1.33575,18.7850625 L17.4492656,18.7850625 C18.1812188,18.7850625 18.7850156,18.1873125 18.7850156,17.4493125 L18.7850156,4.69757812 C18.7850156,4.31990625 18.618,3.77446875 18.4120313,3.46584375 L18.4120313,3.46584375 Z" id="形状"></path>
        </g>
    </g>
</svg>