<svg width="32" height="32" viewBox="0 0 32 32" fill="none" xmlns="http://www.w3.org/2000/svg">
<path d="M32 0H0V32H32V0Z" fill="#E5E5E5"/>
<path d="M13.9691 12.9412C13.0772 12.9412 12.2812 12.4185 11.9793 11.6346L10.2104 7.04191L8.11565 11.7789C7.80459 12.4823 7.07012 12.9412 6.25526 12.9412C5.44688 12.9412 4.72481 12.469 4.44831 11.7595L0 0.345452C0.336606 0.239161 0.687234 0.15501 1.0519 0.0930075C1.41655 0.0310012 1.72978 0 1.99158 0C2.5713 0 3.06218 0.115152 3.46424 0.345452C3.8663 0.575755 4.17017 0.965492 4.37588 1.51468L6.90042 8.68946L8.7798 4.35801L7.43338 0.292306C7.78869 0.186011 8.12061 0.110721 8.42917 0.0664328C8.73773 0.0221443 9.04161 0 9.34081 0C9.82702 0 10.2431 0.115152 10.5891 0.345452C10.935 0.575755 11.1921 0.947778 11.3604 1.46153L13.7728 8.42372L15.5961 2.41816C15.8205 1.63868 16.1103 1.04079 16.4656 0.62447C16.8209 0.208156 17.3539 0 18.0645 0C18.4385 0 18.7798 0.0310012 19.0884 0.0930075C19.3969 0.15501 19.7008 0.239161 20 0.345452L15.9305 11.6254C15.6469 12.4117 14.8575 12.9412 13.9691 12.9412Z" transform="translate(6 10)" fill="#9B9B9B"/>
</svg>
