<svg width="8" height="10" viewBox="0 0 8 10" fill="none" xmlns="http://www.w3.org/2000/svg">
<path d="M0.608761 1.14286C0.944971 1.14286 1.21752 0.88702 1.21752 0.571429C1.21752 0.255837 0.944971 0 0.608761 0C0.272552 0 0 0.255837 0 0.571429C0 0.88702 0.272552 1.14286 0.608761 1.14286Z" transform="translate(0 4.42857)" fill="#27AE60"/>
<path d="M-1.16112e-07 0C1.04819 1.10004 1.62768 2.52414 1.62768 4C1.62768 5.47586 1.04819 6.89996 -1.16112e-07 8" transform="translate(5.37207 1)" stroke="#27AE60" stroke-linecap="round" stroke-linejoin="round"/>
<path d="M0 5.23158e-08C0.585605 0.583173 0.911754 1.35431 0.911754 2.15571C0.911754 2.95712 0.585605 3.72826 0 4.31143" transform="translate(3.04395 2.84515)" stroke="#27AE60" stroke-linecap="round" stroke-linejoin="round"/>
</svg>
