<svg width="20" height="12" viewBox="0 0 20 12" fill="none" xmlns="http://www.w3.org/2000/svg">
<path d="M18 0H2C0.9 0 0.00999999 0.9 0.00999999 2L0 10C0 11.1 0.9 12 2 12H18C19.1 12 20 11.1 20 10V2C20 0.9 19.1 0 18 0ZM9 3C9 2.44772 9.44771 2 10 2C10.5523 2 11 2.44772 11 3C11 3.55228 10.5523 4 10 4C9.44771 4 9 3.55228 9 3ZM9 6C9 5.44772 9.44771 5 10 5C10.5523 5 11 5.44772 11 6C11 6.55228 10.5523 7 10 7C9.44771 7 9 6.55228 9 6ZM6 3C6 2.44772 6.44772 2 7 2C7.55228 2 8 2.44772 8 3C8 3.55228 7.55228 4 7 4C6.44772 4 6 3.55228 6 3ZM6 6C6 5.44772 6.44772 5 7 5C7.55228 5 8 5.44772 8 6C8 6.55228 7.55228 7 7 7C6.44772 7 6 6.55228 6 6ZM5 6C5 6.55228 4.55228 7 4 7C3.44772 7 3 6.55228 3 6C3 5.44772 3.44772 5 4 5C4.55228 5 5 5.44772 5 6ZM5 3C5 3.55228 4.55228 4 4 4C3.44772 4 3 3.55228 3 3C3 2.44772 3.44772 2 4 2C4.55228 2 5 2.44772 5 3ZM15 9C15 9.55229 14.5523 10 14 10H6C5.44772 10 5 9.55229 5 9C5 8.44771 5.44772 8 6 8H14C14.5523 8 15 8.44771 15 9ZM14 6C14 6.55228 13.5523 7 13 7C12.4477 7 12 6.55228 12 6C12 5.44772 12.4477 5 13 5C13.5523 5 14 5.44772 14 6ZM14 3C14 3.55228 13.5523 4 13 4C12.4477 4 12 3.55228 12 3C12 2.44772 12.4477 2 13 2C13.5523 2 14 2.44772 14 3ZM17 6C17 6.55228 16.5523 7 16 7C15.4477 7 15 6.55228 15 6C15 5.44772 15.4477 5 16 5C16.5523 5 17 5.44772 17 6ZM17 3C17 3.55228 16.5523 4 16 4C15.4477 4 15 3.55228 15 3C15 2.44772 15.4477 2 16 2C16.5523 2 17 2.44772 17 3Z" fill="#A2A7AD"/>
</svg>
