<?xml version="1.0" standalone="no"?><!DOCTYPE svg PUBLIC "-//W3C//DTD SVG 1.1//EN" "http://www.w3.org/Graphics/SVG/1.1/DTD/svg11.dtd"><svg t="1537413059708" class="icon" style="" viewBox="0 0 1024 1024" version="1.1" xmlns="http://www.w3.org/2000/svg" p-id="1821" data-spm-anchor-id="a313x.7781069.0.i0" xmlns:xlink="http://www.w3.org/1999/xlink" width="32" height="32"><defs><style type="text/css"></style></defs><path d="M1012.151603 12.020586c-15.592194-15.592194-41.159582-15.592194-56.866569 0L622.344153 343.358288V91.012076c0-22.012739-18.115017-40.011659-40.242548-40.011658-22.126227 0-40.242548 17.99892-40.242548 40.011658v348.3061c0 11.121814 4.701269 21.325289 12.153641 28.548076 7.222787 7.452372 17.542359 12.037544 28.662869 12.037544h350.369753c22.127531 0 40.242548-17.99892 40.242548-40.011658s-18.115017-40.012963-40.242548-40.012963H679.553794L1012.266395 68.542777c15.592194-15.592194 15.592194-40.929997-0.114792-56.522191zM469.958604 555.918512c-7.222787-7.452372-17.541055-12.038848-28.661565-12.038848H91.042079c-22.127531 0-40.242548 18.001529-40.242548 40.012963 0 22.012739 18.115017 40.012963 40.242548 40.012963h253.605014L11.704907 954.785427c-15.592194 15.593498-15.592194 40.929997 0 56.522191 15.592194 15.593498 41.158278 15.593498 56.865264 0L401.629758 680.199501v252.573187c0 22.012739 18.113712 40.012963 40.242548 40.012963 22.126227 0 40.241243-18.000224 40.241243-40.012963V584.466589c-0.229585-11.121814-4.701269-21.325289-12.153641-28.548077z" fill="#A2A7AD" p-id="1822" data-spm-anchor-id="a313x.7781069.0.i2" class="selected"></path></svg>