<svg width="15" height="16" viewBox="0 0 15 16" fill="none" xmlns="http://www.w3.org/2000/svg">
<path d="M5.35024 3.06977V2.67634C5.35024 1.19899 4.1551 4.00213e-09 2.67617 4.00213e-09C1.19741 4.00213e-09 5.86979e-08 1.19881 5.86979e-08 2.67634V8.05001C5.86979e-08 8.16489 0.0192342 8.27557 0.0339221 8.38661L5.35024 3.06977Z" transform="translate(9.79742) scale(-1 1)" fill="#8F8F8F"/>
<path d="M3.74716 1.29813V-1.06723e-07L-6.93703e-08 3.74786C0.328904 3.89229 0.69068 3.975 1.07309 3.975C2.55219 3.975 3.74716 2.77583 3.74716 1.29813Z" transform="translate(8.19434 6.75183) scale(-1 1)" fill="#8F8F8F"/>
<path d="M8.01276 0C7.70449 0 7.45445 0.249869 7.45445 0.557965V1.61112C7.45445 3.64802 5.79892 5.3053 3.7636 5.3053C3.10369 5.3053 2.48522 5.12904 1.94842 4.8248L1.13779 5.63595C1.74524 6.03427 2.44746 6.29813 3.20441 6.38626V7.46757H0.558139C0.250044 7.46757 0 7.71726 0 8.02571C0 8.33328 0.250044 8.58297 0.558139 8.58297H6.96748C7.27557 8.58297 7.52562 8.33328 7.52562 8.02571C7.52562 7.71708 7.2754 7.46757 6.96748 7.46757H4.32069V6.38661C6.70957 6.10859 8.57108 4.07484 8.57108 1.61095V0.55779C8.57108 0.249694 8.32034 0 8.01276 0Z" transform="translate(10.8847 6.41699) scale(-1 1)" fill="#8F8F8F"/>
<path d="M1.32104 2.81518C1.19024 2.43714 1.11645 2.03357 1.11645 1.61112V0.557965C1.11645 0.249869 0.866235 -2.66809e-07 0.558314 -2.66809e-07C0.250219 -2.66809e-07 -1.254e-07 0.249869 -1.254e-07 0.557965V1.61112C-1.254e-07 2.34779 0.171359 3.04336 0.468439 3.66795L1.32104 2.81518Z" transform="translate(11.93 6.41699) scale(-1 1)" fill="#8F8F8F"/>
<path d="M14.4909 0.16314C14.3821 0.0542053 14.2388 -4.26894e-08 14.0964 -4.26894e-08C13.9541 -4.26894e-08 13.8105 0.0542053 13.7018 0.16314L10.2071 3.65746L5.12686 8.73842L4.38302 9.48173L3.57519 10.2901L0.163403 13.7022C-0.0544675 13.9201 -0.0544675 14.2726 0.163403 14.4903C0.272338 14.5998 0.415195 14.6545 0.558052 14.6545C0.700909 14.6545 0.843766 14.5998 0.952702 14.4903L4.31518 11.1283L5.10378 10.3396L5.81806 9.62476L10.2073 5.23518L14.4909 0.95209C14.7088 0.734219 14.7088 0.381011 14.4909 0.16314Z" transform="translate(14.6543 0.464233) scale(-1 1)" fill="#8F8F8F"/>
</svg>
