<svg width="20" height="16" viewBox="0 0 20 16" fill="none" xmlns="http://www.w3.org/2000/svg">
<path d="M1.5 0C0.671575 0 0 0.671575 0 1.5V4.5C0 5.32845 0.671575 6 1.5 6H5.5C6.32845 6 7 5.32845 7 4.5V1.5C7 0.671575 6.32845 0 5.5 0H1.5Z" transform="translate(10 1)" fill="#A2A7AD"/>
<path d="M0 2.20034V1.46701C0 1.28236 0.10175 1.11273 0.2647 1.02583L2.13235 0.0297578C2.2989 -0.0590572 2.5 0.0616128 2.5 0.250343V3.41701C2.5 3.60574 2.2989 3.72641 2.13235 3.6376L0.2647 2.64152C0.10175 2.55462 0 2.385 0 2.20034Z" transform="translate(17.5 2.16632)" fill="#A2A7AD"/>
<path d="M13.7143 11.4286C13.0831 10.7974 12.0598 10.7974 11.4286 11.4286C10.7974 12.0598 9.77404 12.0598 9.14286 11.4286L4.57143 6.85714C3.94025 6.22596 3.94025 5.20261 4.57143 4.57143C5.20261 3.94025 5.20261 2.9169 4.57143 2.28571L3.69993 1.41421C2.91888 0.633165 1.65255 0.633165 0.871501 1.41421L0.585786 1.69993C0.210714 2.075 -0.00693752 2.58476 0.0246211 3.11426C0.4367 10.0282 5.97185 15.5633 12.8857 15.9754C13.4152 16.0069 13.925 15.7893 14.3001 15.4142L14.5858 15.1285C15.3668 14.3475 15.3668 13.0811 14.5858 12.3001L13.7143 11.4286Z" fill="#A2A7AD"/>
</svg>
