<svg width="16" height="10" viewBox="0 0 16 10" fill="none" xmlns="http://www.w3.org/2000/svg">
<path d="M2.4 0C1.07452 0 0 1.07452 0 2.4V7.2C0 8.52552 1.07452 9.6 2.4 9.6H8.8C10.1255 9.6 11.2 8.52552 11.2 7.2V2.4C11.2 1.07452 10.1255 0 8.8 0H2.4Z" fill="white"/>
<path d="M0 3.52055V2.34722C0 2.05177 0.1628 1.78037 0.42352 1.64133L3.41176 0.0476125C3.67824 -0.0944915 4 0.0985805 4 0.400548V5.46722C4 5.76919 3.67824 5.96226 3.41176 5.82016L0.42352 4.22644C0.1628 4.0874 0 3.816 0 3.52055Z" transform="translate(12 1.86609)" fill="white"/>
</svg>
