<svg width="21" height="8" viewBox="0 0 21 8" fill="none" xmlns="http://www.w3.org/2000/svg">
<path d="M13.2785 10.9928C12.888 10.6023 12.2548 10.6023 11.8643 10.9928L10.9928 11.8643C10.6023 12.2548 9.96913 12.2548 9.57861 11.8643L4.13568 6.42139C3.74515 6.03087 3.74515 5.3977 4.13568 5.00718L5.00718 4.13568C5.3977 3.74515 5.3977 3.11199 5.00718 2.72146L2.99282 0.707107C2.6023 0.316582 1.96913 0.316583 1.57861 0.707107L0.292893 1.99282C0.105357 2.18036 -0.0017184 2.43577 0.00616495 2.70087C0.221576 9.94468 6.05533 15.7784 13.2991 15.9938C13.5642 16.0017 13.8196 15.8946 14.0072 15.7071L15.2929 14.4214C15.6834 14.0309 15.6834 13.3977 15.2929 13.0072L13.2785 10.9928Z" transform="translate(21.6274 6.31372) rotate(135)" fill="#FF3922"/>
</svg>
